<svg width="272" height="121" viewBox="0 0 272 121" fill="none" xmlns="http://www.w3.org/2000/svg">
<path d="M7.90399 98.6181C6.77673 99.1492 5.55553 99.441 4.31489 99.4738C2.03445 99.5754 0.107087 97.7887 0.00667007 95.4808C0.0034308 95.3923 0.00019154 95.3037 0.00667007 95.2119C0.00667007 92.6876 2.02473 90.642 4.51896 90.6387C4.57403 90.6387 4.62586 90.6387 4.68093 90.6387C5.58144 90.6846 6.469 90.8386 7.33388 91.0944C7.44726 91.1009 7.55739 91.0681 7.65133 91.0026H7.83273V93.1958H7.56063C7.37923 91.8385 6.17747 90.8649 4.82993 90.9796C2.47175 90.9796 1.2635 92.9565 1.2635 95.1267C1.07563 97.1429 2.53653 98.9328 4.52868 99.123C4.59347 99.1295 4.66149 99.1328 4.72952 99.1361C5.44539 99.1295 6.15155 98.9492 6.78321 98.6116V96.9101C6.78321 96.1332 6.51111 95.8807 5.65594 95.8807H5.21541V95.6283H8.82718V95.8807C8.1599 95.8807 7.89104 96.143 7.89104 96.7265L7.91371 98.6116L7.90399 98.6181Z" fill="white"/>
<path d="M13.6045 99.4776C10.9839 99.4776 8.77152 97.7631 8.77152 95.2387C8.7618 92.7144 10.7766 90.6622 13.2709 90.6523C13.4037 90.6523 13.5365 90.6589 13.6725 90.6687C16.0987 90.4983 18.201 92.3538 18.3662 94.8093C18.3662 94.8158 18.3662 94.8224 18.3662 94.8289C18.363 97.4024 16.2963 99.4875 13.7503 99.4809C13.7017 99.4809 13.6499 99.4809 13.6013 99.4809L13.6045 99.4776ZM13.3227 90.9769C10.9742 90.9769 10.0381 93.1931 10.0381 94.8158C9.86963 97.0254 11.5022 98.9531 13.6822 99.1236C13.7503 99.1301 13.8183 99.1334 13.8863 99.1334C16.0663 99.1334 17.1159 97.1795 17.1159 95.2617C17.1159 92.7472 15.5351 90.9769 13.3227 90.9769Z" fill="white"/>
<path d="M19.6335 92.2682C19.6335 91.5043 19.5331 91.1273 18.5937 91.1273H18.1305V90.8749L19.8117 90.7962H21.82C22.7465 90.7306 23.6729 90.9142 24.5054 91.3207C25.0204 91.642 25.3314 92.2157 25.3185 92.8288C25.2666 93.6746 24.6252 94.3663 23.796 94.4745C24.9135 94.6614 25.746 95.6154 25.7946 96.7595C25.7719 98.2118 24.5929 99.3691 23.1579 99.3461C23.0736 99.3461 22.9894 99.3395 22.9052 99.3297H18.0625V99.0674H18.367C19.4943 99.0674 19.6886 98.815 19.6886 97.9266L19.6335 92.2715V92.2682ZM20.7608 94.3598H22.2185C23.5045 94.3598 24.1491 93.8451 24.1491 92.7829C24.1491 91.7207 23.5854 90.9765 21.8913 90.9765H20.764V94.3598H20.7608ZM20.7608 97.5004C20.7608 98.5298 21.156 98.8937 22.2833 98.8937C23.3781 99.0412 24.3823 98.2675 24.5313 97.1595C24.5507 97.0152 24.554 96.8677 24.541 96.7234C24.5151 95.5236 23.5336 94.5728 22.3513 94.5991C22.2995 94.5991 22.2476 94.6024 22.1958 94.6089H20.7381L20.7608 97.5004Z" fill="white"/>
<path d="M29.2825 99.262H26.0303V98.9998C26.866 98.9998 27.0344 98.7473 27.0344 97.8589V92.148C27.0344 91.417 26.785 91.2104 26.0303 91.1645V90.9121H29.2825V91.1645C28.4468 91.1645 28.1552 91.358 28.1552 92.3054V98.0163C28.1552 98.8031 28.369 99.0784 29.2825 99.0784V99.262Z" fill="white"/>
<path d="M35.7971 96.2092H35.538C35.4376 95.2487 35.1752 95.1471 34.6342 95.1471H32.3765V98.0254C32.3765 98.6418 32.6032 98.7696 33.0988 98.7696H35.1525C36.0887 98.7696 36.3705 98.4024 36.7106 97.2386H36.9471L36.7333 99.2614H29.6328V98.9991H30.0053C31.1326 98.9991 31.2589 98.7008 31.2589 97.8582V92.1474C31.2589 91.3934 31.0905 91.0065 30.1317 91.0065H29.8369V90.7541H36.2603L36.3737 92.6391H36.1243C35.9559 91.4983 35.6157 91.2458 35.1428 91.2458H32.3214V94.5701H34.7703C35.2432 94.5701 35.4829 94.3406 35.538 93.5538H35.7971V96.2158V96.2092Z" fill="white"/>
<path d="M39.1275 97.9797C39.1275 98.7895 39.4546 98.996 40.2547 98.996H40.5592V99.2583H36.7207V98.996H36.9475C37.7378 98.996 38.0747 98.7796 38.0747 97.8551V92.1443C38.0747 91.3116 37.848 91.0034 37.0705 91.0034H36.7758V90.751C37.0932 90.751 37.903 90.6953 38.4569 90.6723C39.0109 90.6494 39.27 90.6723 40.1381 90.6723C42.6226 90.6723 43.7272 91.7017 43.7272 93.0819C43.7078 94.1441 42.9692 95.0522 41.9424 95.2751C42.4834 95.7046 42.9919 96.1734 43.4648 96.6815L44.5273 97.7568C45.2011 98.5338 46.1405 99.0189 47.1576 99.1173V99.4025C45.593 99.6746 44.0058 99.055 43.0243 97.7928L42.1432 96.9011C41.7254 96.452 41.2654 96.0455 40.7665 95.6914H39.1761L39.121 97.9863L39.1275 97.9797ZM39.1275 95.4423C39.4061 95.4587 39.6846 95.4587 39.9632 95.4423C41.4435 95.4423 42.425 94.803 42.425 93.1573C42.425 91.9017 41.8614 90.8723 39.7948 90.8723C39.5745 90.8592 39.351 90.8592 39.1275 90.8723V95.4423Z" fill="white"/>
<path d="M54.6399 99.4871L47.7208 92.1535V97.9561C47.7208 98.9265 47.9249 99.097 49.0651 99.097V99.3953H45.9619V99.1331C46.7976 99.1331 47.0892 98.8478 47.0892 98.2315V91.5699C46.7555 91.3437 46.3603 91.229 45.9619 91.2388V90.9766H48.0966L54.397 97.625V92.2322C54.397 91.4093 54.1475 91.2618 53.0883 91.2388V90.9766H56.2142V91.2388C55.21 91.2388 54.9962 91.4093 54.9962 91.9371V99.4904H54.6464L54.6399 99.4871Z" fill="white"/>
<path d="M60.7236 99.4776C58.1031 99.4776 55.8907 97.7631 55.8907 95.2387C55.8809 92.7144 57.8958 90.6622 60.39 90.6523C60.5228 90.6523 60.6556 90.6589 60.7917 90.6687C63.2179 90.5048 65.3137 92.3636 65.4756 94.8191V94.8257C65.4724 97.3992 63.4058 99.4842 60.8629 99.4776C60.8176 99.4776 60.7722 99.4776 60.7236 99.4776ZM60.4418 90.9769C58.0934 90.9769 57.1572 93.1931 57.1572 94.8158C56.9888 97.0254 58.6181 98.9531 60.8014 99.1236C60.8565 99.1268 60.9083 99.1301 60.9633 99.1334C63.1434 99.1334 64.1929 97.1795 64.1929 95.2617C64.2382 92.7472 62.6575 90.9769 60.4451 90.9769H60.4418Z" fill="white"/>
<path d="M69.9911 92.1868C69.9911 91.3082 69.7644 91.046 68.974 91.046H68.7148V90.7935L70.6001 90.7148H72.8579C76.3919 90.7148 77.95 92.531 77.95 94.7603C77.8884 97.3141 75.7959 99.3369 73.2692 99.2746C73.1818 99.2746 73.0911 99.268 73.0036 99.2615H68.7246V98.9992H68.9513C69.6737 98.9992 70.0008 98.7927 70.0008 98.0157L69.9911 92.1901V92.1868ZM71.1184 98.255C71.1184 98.8156 71.1184 98.9992 72.2456 98.9992C74.0402 98.9992 74.7852 98.7468 75.6307 97.8583C76.3692 97.0715 76.7741 96.0192 76.7579 94.9341C76.7774 93.8522 76.3725 92.8097 75.6307 92.0327C74.7042 91.1968 73.4798 90.7837 72.2456 90.8919C71.8699 90.8853 71.4909 90.905 71.1184 90.9476V98.2583V98.255Z" fill="white"/>
<path d="M83.8325 96.2091H83.5378C83.4374 95.2485 83.175 95.1469 82.6243 95.1469H80.3665V98.0253C80.3665 98.6416 80.5933 98.7694 81.0889 98.7694H83.1555C84.0917 98.7694 84.3638 98.4023 84.7007 97.2384H84.9371L84.7233 99.2612H77.6553V98.9989H78.0278C79.1 98.9989 79.2911 98.7006 79.2911 97.8581V92.1472C79.2911 91.3932 79.1097 91.0063 78.2189 91.0063H77.8917V90.7539H84.3152L84.4156 92.6389H84.2115C84.0431 91.4981 83.703 91.2457 83.2171 91.2457H80.3957V94.5699H82.7895C83.2754 94.5699 83.5021 94.3404 83.5669 93.5536H83.8261V96.2156L83.8325 96.2091Z" fill="white"/>
<path d="M6.30037 109.05H6.04123C5.94081 108.08 5.67843 107.91 5.12775 107.91H2.86999V110.834C2.86999 111.463 3.10645 111.588 3.6053 111.588H5.64928C6.59838 111.588 6.8802 111.221 7.21708 110.034H7.4665L7.23975 112.08H0V111.817H0.427583C1.55485 111.817 1.70385 111.519 1.70385 110.677V104.966C1.70385 104.189 1.52245 103.825 0.576589 103.825H0.317448V103.563H6.83161L6.94498 105.471H6.69556C6.52712 104.33 6.17728 104.054 5.69139 104.054H2.82464V107.48H5.2638C5.74969 107.48 5.97644 107.241 6.04123 106.441H6.30037V109.057V109.05Z" fill="white"/>
<path d="M13.9996 112.135H7.90332V111.873H8.34386C8.97552 111.873 9.20226 111.666 9.20226 110.971V104.893C9.20226 104.162 8.98847 103.864 8.13007 103.864H7.97135V103.602H11.9783V103.864H11.4697C10.5887 103.864 10.3425 103.956 10.3425 104.801V111.132C10.3425 111.509 10.4883 111.647 10.8834 111.647H12.8821C13.6822 111.647 13.9219 111.325 14.777 110.139H15.0265L13.9996 112.138V112.135Z" fill="white"/>
<path d="M18.9655 110.057C19.1761 111.159 20.1154 111.962 21.2233 111.988C22.1529 112.083 22.9854 111.398 23.0794 110.457C23.0794 110.428 23.0858 110.398 23.0858 110.366C23.0858 108.389 18.7388 107.782 18.7388 105.386C18.8424 104.179 19.8919 103.284 21.0872 103.389C21.1099 103.389 21.1326 103.393 21.1552 103.396C21.7772 103.445 22.3959 103.56 22.9951 103.74C23.1085 103.74 23.1539 103.74 23.2446 103.602H23.4584L23.7078 105.34H23.481C23.1474 104.399 22.2793 103.76 21.2913 103.73C20.4005 103.73 19.7786 104.245 19.7786 105.009C19.7786 106.963 24.1354 107.487 24.1354 110.011C24.0058 111.405 22.7846 112.431 21.4079 112.303C21.3917 112.303 21.3755 112.303 21.3593 112.296C20.7309 112.237 20.1057 112.129 19.4967 111.965C19.3866 111.965 19.2862 112.021 19.2246 112.113H18.9979L18.7031 110.034L18.9623 110.057H18.9655Z" fill="white"/>
<path d="M27.284 108.355L26.5066 110.502C26.3803 110.777 26.2896 111.069 26.2345 111.371C26.2345 111.738 26.5844 111.872 27.3618 111.872H27.5756V112.135H24.4141V111.872C25.2951 111.872 25.4409 111.712 25.8717 110.512L28.3433 103.657L28.2202 103.395H29.4058L32.2401 111.013C32.3794 111.577 32.9139 111.944 33.4808 111.869V112.131H29.7426V111.869H30.0925C30.8699 111.869 31.155 111.79 31.155 111.413C31.1453 111.213 31.0934 111.02 31.0092 110.843L30.0957 108.351H27.284V108.355ZM28.6737 104.552L27.5464 107.751H29.8949L28.6769 104.552H28.6737Z" fill="white"/>
<path d="M39.5123 112.135H33.416V111.873H33.8663C34.4882 111.873 34.7117 111.666 34.7117 110.971V104.893C34.7117 104.162 34.4979 103.864 33.6395 103.864H33.4484V103.602H37.4554V103.864H36.9598C36.0787 103.864 35.8325 103.956 35.8325 104.801V111.132C35.8325 111.509 35.9783 111.647 36.3735 111.647H38.3818C39.1819 111.647 39.4313 111.325 40.2768 110.139H40.5262L39.5091 112.138L39.5123 112.135Z" fill="white"/>
<path d="M42.5603 112.351L39.6126 104.926C39.2725 104.07 39.117 103.863 38.2812 103.863V103.601H42.0194V103.863C40.7658 103.863 40.4742 104.172 40.7334 104.801L43.1725 110.958L45.3169 105.247C45.44 104.975 45.521 104.686 45.5534 104.391C45.5534 103.981 45.2133 103.821 44.2901 103.821V103.559H47.416V103.821C46.7033 103.821 46.2887 104.142 46.0166 104.962L43.2179 112.272L42.5636 112.351H42.5603Z" fill="white"/>
<path d="M48.7352 108.355L47.9578 110.502C47.8314 110.777 47.7407 111.069 47.6857 111.371C47.6857 111.738 48.0355 111.872 48.8129 111.872H49.0267V112.135H45.8555V111.872C46.7463 111.872 46.8953 111.712 47.3229 110.512L49.7944 103.657L49.6713 103.395H50.7986L53.6329 111.013C53.7722 111.577 54.3067 111.944 54.8736 111.869V112.131H51.1938V111.869H51.5436C52.321 111.869 52.6061 111.79 52.6061 111.413C52.5964 111.213 52.5445 111.02 52.4603 110.843L51.5469 108.351H48.7352V108.355ZM50.1248 104.552L48.9976 107.751H51.346L50.1281 104.552H50.1248Z" fill="white"/>
<path d="M56.0939 104.972C56.0939 104.081 55.8671 103.832 55.067 103.832H54.7949V103.569C55.2905 103.569 55.9222 103.514 56.7028 103.491C57.4835 103.468 58.2836 103.491 58.9606 103.491C62.5497 103.491 64.1305 105.33 64.1305 107.592C64.0786 110.178 61.9634 112.231 59.4076 112.178C59.3072 112.178 59.2068 112.172 59.1064 112.162H54.7949V111.9H55.0217C55.757 111.9 56.0939 111.693 56.0939 110.906V104.976V104.972ZM57.2211 111.119C57.2211 111.69 57.2211 111.873 58.3484 111.873C60.1656 111.873 60.9236 111.621 61.7334 110.733C62.4752 109.926 62.8801 108.864 62.8607 107.762C62.8834 106.667 62.4785 105.608 61.7334 104.815C60.7811 103.953 59.5145 103.537 58.2447 103.674C57.869 103.648 57.4932 103.648 57.1175 103.674L57.2179 111.123L57.2211 111.119Z" fill="white"/>
<path d="M69.6634 112.352C67.0007 112.352 64.7656 110.628 64.7656 108.058C64.7592 105.484 66.8129 103.389 69.3557 103.383C69.482 103.383 69.6051 103.386 69.7314 103.396C72.203 103.245 74.3312 105.137 74.5061 107.635C74.5061 110.241 72.4233 112.356 69.848 112.356C69.7865 112.356 69.725 112.356 69.6634 112.352ZM69.3686 103.737C66.9878 103.737 65.9836 106.022 65.9836 107.632C65.8411 109.874 67.519 111.808 69.7347 111.952C69.8189 111.959 69.9064 111.962 69.9906 111.962C72.2483 111.962 73.2655 109.985 73.2655 108.045C73.2201 105.53 71.6167 103.737 69.3719 103.737H69.3686Z" fill="white"/>
<path d="M76.8317 110.821C76.8317 111.644 77.1589 111.85 77.959 111.85H78.2764V112.113H74.3828V111.85H74.6193C75.4194 111.85 75.7465 111.634 75.7465 110.71V104.963C75.7465 104.107 75.5101 103.822 74.7294 103.822H74.4249V103.56C74.7521 103.56 75.5522 103.504 76.1417 103.481C76.7313 103.458 76.9645 103.481 77.8456 103.481C80.3625 103.481 81.48 104.52 81.48 105.927C81.48 107.018 80.735 107.966 79.6855 108.212C80.2297 108.651 80.7447 109.123 81.2306 109.628L82.3579 110.713C83.0381 111.503 83.9905 112.001 85.0206 112.106V112.346C83.4333 112.627 81.8202 112.001 80.8322 110.713L79.9414 109.811C79.4846 109.339 78.9826 108.913 78.4384 108.543H76.8252V110.828L76.8317 110.821ZM76.8317 108.238C77.1103 108.261 77.3888 108.261 77.6674 108.238C79.1802 108.238 80.1617 107.585 80.1617 105.953C80.1617 104.674 79.598 103.668 77.5087 103.668C77.282 103.655 77.0584 103.655 76.8317 103.668V108.238Z" fill="white"/>
<path d="M42.5381 7.81641L43.5294 9.86209L45.7644 10.1932L44.1513 11.7799L44.5368 14.0321L42.5381 12.9667L40.5395 14.0321L40.9217 11.7799L39.3086 10.1932L41.5437 9.86209L42.5381 7.81641Z" fill="white"/>
<path d="M57.1895 11.6094L58.1937 13.6551L60.4191 13.9731L58.8059 15.563L59.1881 17.812L57.1895 16.7498L55.2038 17.812L55.5764 15.563L53.96 13.9731L56.1983 13.6551L57.1895 11.6094Z" fill="white"/>
<path d="M68.4324 20.8047L69.4268 22.8504L71.6619 23.1815L70.0488 24.7682L70.4213 27.0204L68.4324 25.9582L66.4337 27.0204L66.8192 24.7682L65.2061 23.1815L67.4282 22.8504L68.4324 20.8047Z" fill="white"/>
<path d="M74.8468 33.9902L75.851 36.0359L78.0731 36.367L76.4599 37.9537L76.8454 40.1928L74.8468 39.1438L72.8579 40.1928L73.2433 37.9537L71.627 36.367L73.8523 36.0359L74.8468 33.9902Z" fill="white"/>
<path d="M75.0925 49.2871L76.0999 51.3328L78.3221 51.6639L76.7089 53.2539L77.0911 55.493L75.0925 54.4407L73.1068 55.493L73.4794 53.2539L71.8662 51.6639L74.1013 51.3328L75.0925 49.2871Z" fill="white"/>
<path d="M68.4454 62.5273L69.4366 64.573L71.6717 64.8943L70.0585 66.4941L70.444 68.7332L68.4454 67.671L66.4467 68.7332L66.829 66.4941L65.2158 64.8943L67.4509 64.573L68.4454 62.5273Z" fill="white"/>
<path d="M57.2706 71.7363L58.2618 73.782L60.4871 74.1131L58.8708 75.6998L59.2562 77.952L57.2706 76.8899L55.2719 77.952L55.6542 75.6998L54.041 74.1131L56.2632 73.782L57.2706 71.7363Z" fill="white"/>
<path d="M42.5254 74.9688L43.5296 77.0144L45.755 77.3455L44.1418 78.9355L44.5241 81.1845L42.5254 80.1223L40.5398 81.1845L40.9123 78.9355L39.2959 77.3455L41.5342 77.0144L42.5254 74.9688Z" fill="white"/>
<path d="M28.1199 71.75L29.1273 73.7957L31.3494 74.1268L29.7363 75.7135L30.1185 77.9526L28.1199 76.9003L26.1245 77.9526L26.5067 75.7135L24.8936 74.1268L27.1286 73.7957L28.1199 71.75Z" fill="white"/>
<path d="M16.9346 62.541L17.9258 64.5867L20.1609 64.9178L18.5478 66.5045L18.9332 68.7567L16.9346 67.6946L14.9457 68.7567L15.3182 66.5045L13.7051 64.9178L15.9402 64.5867L16.9346 62.541Z" fill="white"/>
<path d="M10.2745 49.3906L11.2657 51.4232L13.5008 51.7543L11.8876 53.341L12.2699 55.5932L10.2745 54.531L8.27584 55.5932L8.65807 53.341L7.04492 51.7543L9.28001 51.4232L10.2745 49.3906Z" fill="white"/>
<path d="M10.2745 33.9902L11.2657 36.0359L13.5008 36.367L11.8876 37.9537L12.2699 40.1928L10.2745 39.1438L8.27584 40.1928L8.65807 37.9537L7.04492 36.367L9.28001 36.0359L10.2745 33.9902Z" fill="white"/>
<path d="M16.5948 20.8281L17.599 22.8738L19.8243 23.1951L18.2112 24.7916L18.5934 27.0307L16.5948 25.9686L14.6091 27.0307L14.9816 24.7916L13.3652 23.1951L15.6036 22.8738L16.5948 20.8281Z" fill="white"/>
<path d="M28.0974 11.6094L29.1049 13.6551L31.327 13.9862L29.7138 15.5729L30.0961 17.8251L28.0974 16.7596L26.1118 17.8251L26.4973 15.5729L24.8809 13.9862L27.1062 13.6551L28.0974 11.6094Z" fill="white"/>
<path d="M59.6284 49.8012C59.4794 49.7946 59.353 49.9126 59.3466 50.0634C59.3466 50.0667 59.3466 50.07 59.3466 50.0765C59.3466 50.2339 59.4729 50.3618 59.6284 50.3618H59.6964C59.8486 50.3552 59.9685 50.2306 59.9685 50.0765C59.9685 49.9257 59.8486 49.8012 59.6964 49.8012H59.6284Z" fill="white"/>
<path d="M62.6991 45.884C62.4594 45.9234 62.2294 46.0086 62.0221 46.1364C61.9055 46.2184 61.7759 46.2709 61.6399 46.2971C61.7176 46.1299 61.7532 45.9463 61.7403 45.7594V44.412C61.7403 44.412 61.5718 44.9267 61.3354 45.0415C61.0989 45.1562 60.6227 45.3398 60.545 45.5103C60.4673 45.6808 60.1174 45.6808 59.9911 46.1856C59.9555 46.4085 59.8874 46.6249 59.787 46.8249L59.6736 46.9954C59.8421 46.2446 59.936 45.4808 59.9555 44.7104V44.3563C60.0591 44.2678 60.1563 44.1694 60.2502 44.0711C60.3506 43.9006 61.6496 43.4548 61.831 43.1007C62.0124 42.7466 62.1031 42.5172 62.1938 42.3696C62.3169 42.068 62.3881 41.7468 62.3979 41.4222C62.3817 40.9862 62.3331 40.5502 62.2521 40.1207C62.0513 40.2223 61.8699 40.3633 61.7208 40.5305C61.682 40.5895 61.6301 40.6387 61.5751 40.678C61.5978 40.5567 61.5978 40.4321 61.5751 40.3108C61.3937 39.865 61.1119 39.2585 61.1119 39.2585C61.1119 39.2585 60.8754 39.6355 60.7394 39.8748C60.5256 40.3076 60.3118 40.3436 60.2761 40.5141C60.2437 40.6846 59.9814 40.8124 59.8939 41.1665C59.8648 41.255 59.8421 41.3468 59.8259 41.4419C59.7255 40.6879 59.5991 40.0027 59.4631 39.3864C59.4631 39.1929 59.5991 38.7569 59.7676 38.6225C59.9911 38.3963 60.098 38.0816 60.0623 37.7669C60.0526 37.4948 60.0105 37.2292 59.9393 36.9669C59.9393 36.7604 59.2622 35.8261 59.3173 35.6196L58.8768 36.6129C58.5626 36.2949 58.2062 36.0195 57.8143 35.8031L57.3284 34.9573V34.5246C57.3932 34.2328 57.3932 33.9279 57.3284 33.6329C57.2507 33.4263 57.079 33.2559 56.9883 32.9936C56.9462 32.7543 56.8263 32.5314 56.6482 32.3642L56.1526 31.8495C56.1526 31.8495 56.0619 32.2265 55.9938 32.5346C55.9258 32.4986 55.8545 32.4691 55.78 32.4428C55.6829 32.4101 55.5922 32.3642 55.5079 32.3052C55.3622 32.1117 55.2132 31.9183 55.0804 31.7577C55.1613 31.7085 55.2099 31.6233 55.2164 31.5282C55.2164 31.3708 55.0901 31.243 54.9346 31.243C54.7856 31.243 54.6625 31.3643 54.6625 31.5184C54.6625 31.5216 54.6625 31.5249 54.6625 31.5315C54.6625 31.6823 54.7823 31.8068 54.9346 31.8068C54.9832 31.82 55.0318 31.82 55.0804 31.8068C55.0804 31.8626 55.2261 32.0363 55.3978 32.2986C55.2618 32.2199 55.1257 32.1511 55.0706 32.1052C55.0156 32.0593 54.9022 32.869 55.1484 33.3378H55.035C54.7176 33.2559 54.3904 33.2231 54.0632 33.246C54.1863 33.246 54.4908 33.5771 54.5264 33.7476C54.6333 34.0066 54.8083 34.2263 55.035 34.3869C55.2618 34.5115 55.4723 34.6721 55.657 34.8557C55.9841 35.0262 56.3534 35.0983 56.7194 35.0622C56.8296 35.1344 56.9624 35.1671 57.0919 35.154C57.2377 35.4294 57.3964 35.7015 57.5552 35.9769C57.4871 36.2129 57.4515 36.4621 57.4547 36.708L56.5413 36.5014C56.5801 36.8784 56.7032 37.2423 56.9041 37.5636C56.8652 37.5997 56.836 37.6488 56.8263 37.7013C56.7972 37.7865 56.7972 37.8783 56.8263 37.9636C56.9267 38.1111 57.0693 38.2258 57.2312 38.2947L53.8462 40.7403C54.0082 37.7472 53.8948 34.7442 53.5061 31.7708C53.9239 31.6101 53.8106 31.4167 53.8106 31.4167L53.6518 31.0069C53.694 31.02 53.7361 31.02 53.7749 31.0069C53.8527 31.0069 53.9272 30.9742 53.979 30.9151C54.0891 30.7971 54.0891 30.6103 53.979 30.4922C53.8948 30.4168 53.8041 30.3513 53.7069 30.2988L54.2025 30.23L54.4843 29.0301L53.3571 29.4301V29.9316C53.2729 29.8398 53.1757 29.7677 53.0623 29.7153C52.9424 29.5973 52.7513 29.5973 52.6347 29.7153C52.5213 29.8366 52.5213 30.0267 52.6347 30.148C52.7578 30.2562 52.9036 30.3316 53.0623 30.3644L47.2932 36.7965L43.4676 30.3185C43.5421 28.9481 43.3477 27.5811 42.904 26.2861C42.9558 26.073 42.9785 25.8534 42.972 25.6337C43.1437 25.5813 43.2797 25.4436 43.3348 25.2666C43.3348 25.2666 43.053 24.9223 42.8845 24.765H43.0983C43.2635 24.7715 43.4093 24.647 43.4255 24.4798C43.4125 24.3126 43.2732 24.188 43.108 24.1946C42.9979 24.1782 42.8878 24.1782 42.7809 24.1946L43.0983 23.8077L42.4991 22.7324L41.9128 23.8176L42.2302 24.1946C42.1265 24.1782 42.0197 24.1782 41.9128 24.1946C41.8188 24.1946 41.7314 24.2306 41.6633 24.2962C41.5629 24.3913 41.5597 24.5519 41.6536 24.6502C41.6569 24.6535 41.6601 24.6568 41.6633 24.6601C41.7281 24.7256 41.8188 24.765 41.9128 24.7617H42.0812C41.9711 24.8666 41.8674 24.9814 41.7767 25.1059C41.7411 25.1289 41.7119 25.1617 41.686 25.1977C41.7249 25.283 41.7832 25.3584 41.8545 25.4141C40.8989 27.1516 40.5814 29.1743 40.9637 31.125L37.6564 36.7243L31.8646 30.2693C32.0362 30.2464 32.195 30.1677 32.3148 30.0398C32.3861 29.9808 32.4314 29.8923 32.4379 29.8005C32.4379 29.7284 32.4152 29.6628 32.3699 29.6071C32.3213 29.5579 32.2565 29.5284 32.1885 29.5284C32.0978 29.5284 32.0103 29.5612 31.9391 29.6202C31.8581 29.6923 31.7901 29.7776 31.735 29.8726V29.371L30.6077 28.9711L30.8895 30.171L31.3852 30.2398C31.2847 30.2923 31.194 30.3545 31.1131 30.4332C31.0483 30.4955 31.0062 30.5808 30.9997 30.6725C30.9997 30.7414 31.0224 30.807 31.0677 30.8561C31.1163 30.9086 31.1778 30.9414 31.2491 30.9479C31.2945 30.9578 31.3398 30.9578 31.3852 30.9479L31.2264 31.3577C31.2264 31.3577 31.1131 31.5511 31.5309 31.7118C31.139 34.6852 31.0256 37.6882 31.1908 40.6813L27.7475 38.2357C27.9127 38.1701 28.0487 38.0554 28.1426 37.9045C28.1848 37.8488 28.2139 37.78 28.2204 37.7111C28.2139 37.6456 28.1848 37.5866 28.1426 37.5407C28.3435 37.2194 28.4698 36.8555 28.5152 36.4785L27.6017 36.685C27.5985 36.4391 27.5628 36.1933 27.5013 35.9539C27.647 35.6786 27.8058 35.4065 27.9645 35.1311C28.0908 35.1442 28.2204 35.1114 28.3273 35.0393C28.6933 35.0753 29.0626 35.0032 29.3898 34.8327C29.5776 34.6459 29.7914 34.4885 30.0214 34.3639C30.2287 34.1902 30.3875 33.9673 30.4846 33.7116C30.4846 33.5411 30.8118 33.21 30.9349 33.21C30.611 33.187 30.287 33.2198 29.9761 33.3018H29.853C30.1121 32.833 30.0441 32.0003 29.9437 32.0691L29.6165 32.2625L29.921 31.7708C29.9696 31.7839 30.0182 31.7839 30.0668 31.7708C30.2093 31.7282 30.2935 31.5774 30.2547 31.4331C30.2158 31.2889 30.0635 31.2036 29.921 31.243C29.7785 31.2823 29.6943 31.4364 29.7331 31.5806C29.759 31.6724 29.8303 31.7446 29.921 31.7708C29.785 31.9314 29.6489 32.1248 29.5031 32.3183C29.4189 32.374 29.3282 32.4199 29.231 32.456C29.1565 32.4822 29.0853 32.5117 29.0173 32.5478C28.9395 32.2396 28.8585 31.8626 28.8585 31.8626L28.35 32.3773C28.1815 32.551 28.0649 32.7674 28.0098 33.0067C27.9127 33.2296 27.7993 33.4427 27.6697 33.646C27.6049 33.9378 27.6049 34.2426 27.6697 34.5377V34.9704L27.1838 35.8162C26.7984 36.0425 26.442 36.3146 26.1213 36.626C26.008 36.3506 25.6938 35.6327 25.6938 35.6327C25.6938 35.8851 25.1075 36.7735 25.0621 36.9801C24.9941 37.2423 24.9552 37.5111 24.9487 37.78C24.9066 38.0947 25.0103 38.4094 25.2306 38.6356C25.412 38.7733 25.48 39.206 25.535 39.3995C25.399 40.0158 25.2759 40.701 25.1852 41.455C25.169 41.3632 25.1463 41.2714 25.1172 41.1796C25.0168 40.8255 24.7544 40.7108 24.7349 40.5272C24.7155 40.3436 24.4758 40.3207 24.262 39.8879C24.126 39.6486 23.8895 39.2716 23.8895 39.2716C23.8895 39.2716 23.6174 39.8781 23.4392 40.324C23.3939 40.442 23.3712 40.5633 23.3712 40.6911C23.3161 40.6485 23.2676 40.5961 23.2254 40.5436C23.0829 40.3731 22.9048 40.2322 22.7072 40.1338C22.6197 40.5633 22.5711 40.9993 22.5614 41.4353C22.5711 41.7599 22.6391 42.0811 22.7655 42.3828C22.8432 42.5303 22.9469 42.7696 23.1283 43.1138C23.3097 43.458 24.5957 43.9137 24.709 44.0842C24.7965 44.1858 24.8904 44.2809 24.9908 44.3694V44.7235C25.007 45.4939 25.0977 46.2577 25.2629 47.0085V46.8478C25.1658 46.6446 25.0945 46.4315 25.0589 46.2086C24.9228 45.707 24.5859 45.707 24.505 45.5332C24.424 45.3595 23.964 45.189 23.7049 45.0644C23.4457 44.9399 23.3 44.435 23.3 44.435V45.7824C23.287 45.966 23.3226 46.1528 23.4004 46.32C23.2578 46.2938 23.125 46.2413 23.0052 46.1594C22.8011 46.0315 22.5744 45.9463 22.3379 45.907C22.393 46.3528 22.4739 46.7954 22.5873 47.2314C22.6942 47.5592 22.8659 47.8641 23.0959 48.1231C23.2093 48.2477 23.3777 48.4542 23.6725 48.7526C24.2653 49.064 24.9001 49.2836 25.5577 49.4049C25.8007 49.4738 26.0112 49.6344 26.144 49.8508C26.144 49.9524 26.1991 50.0573 26.2218 50.1262C26.3125 50.4933 26.4356 50.9359 26.5846 51.4277C26.2833 51.1293 25.8784 50.9589 25.4573 50.9589C25.1625 50.9589 24.0353 50.6146 24.0353 50.6146C24.3365 50.9818 24.5438 51.4178 24.6442 51.8834C24.2069 51.8047 23.7599 51.8047 23.3226 51.8834C23.7794 52.2276 24.1648 52.6636 24.4499 53.1619C24.6248 53.6176 24.8645 54.0438 25.1625 54.4306C25.2986 54.5093 25.6711 54.9781 25.9173 55.2305C26.1635 55.483 27.1709 55.3551 27.5078 55.3551C27.7734 55.4043 28.0293 55.483 28.2755 55.5944C28.5897 56.0108 28.946 56.3943 29.3379 56.7353C28.9946 56.5943 28.6804 56.3878 28.4115 56.1288C28.2528 55.8993 28.4115 56.873 28.6253 57.191C28.3662 57.1877 28.1135 57.1123 27.89 56.9746C27.6179 56.7582 27.89 57.7516 28.1621 58.027C28.8067 58.6105 28.7484 58.7023 28.852 58.7482C28.3564 58.9121 27.8349 58.9678 27.3166 58.9088C27.0121 58.7384 27.6568 59.3317 28.039 59.4793C28.4212 59.6268 28.5249 60.0497 29.1663 60.2431C29.6975 60.4824 30.2676 60.6136 30.8474 60.63C31.1454 60.5283 31.4532 60.4529 31.7609 60.4005C32.3116 60.1546 32.8785 59.9448 33.455 59.771C34.1159 60.1874 34.7993 60.5677 35.499 60.9119H35.5994H35.363C34.8641 61.0594 34.3458 61.1151 33.8276 61.0824C33.5911 60.9578 34.0867 61.643 34.3912 61.9052C33.928 62.0069 33.4518 62.0396 32.9789 62.0069C32.6387 61.938 33.6559 62.9215 34.0511 63.0362C33.8049 63.128 33.5457 63.1871 33.2834 63.2067C32.9335 63.2067 34.4106 64.1443 34.7864 64.0853C36.0626 63.9017 37.2709 64.3377 37.8572 64.0853C38.4435 63.8329 38.7026 63.7313 38.9845 63.6526C39.2663 63.5739 39.4023 63.3083 39.5611 63.1838C39.7295 62.9772 39.9368 62.8035 40.17 62.6822C40.1959 62.6887 40.2219 62.6887 40.2478 62.6822C40.6948 62.7084 41.145 62.7084 41.5921 62.6822C41.3912 62.7609 41.2034 62.8723 41.0382 63.0133C40.3838 63.2198 39.9109 63.4001 39.6841 63.4821C38.9132 64.0001 38.1973 64.5967 37.5495 65.2655C37.5495 65.2655 38.6767 65.1737 38.8031 65.1737C38.9294 65.1737 39.344 64.4197 39.5157 64.2951C39.6841 64.1705 39.8429 64.1115 40.251 63.9181C39.7327 64.6557 39.8558 65.672 40.5328 66.2588C40.2381 65.9146 40.5328 65.3212 40.5328 65.3212L41.1191 65.6983C40.6754 64.8656 40.9799 63.8263 41.8026 63.3739C41.8383 63.3542 41.8739 63.3379 41.9095 63.3215H42.0229C42.1849 63.5772 42.5185 63.6526 42.7712 63.4887C42.8392 63.446 42.8943 63.387 42.9364 63.3215L43.1728 63.4001C43.9826 63.8329 44.2969 64.8459 43.8693 65.6687C43.8693 65.6753 43.8628 65.6819 43.8596 65.6851L44.4459 65.3081C44.4459 65.3081 44.773 65.9015 44.4459 66.2457C45.0451 65.7048 45.2006 64.8164 44.8184 64.0984C45.1682 64.2689 45.4047 64.3968 45.45 64.4295C45.4954 64.4623 45.991 65.3081 46.1627 65.3081C46.3343 65.3081 47.4163 65.3999 47.4163 65.3999C46.7684 64.7311 46.0525 64.1345 45.2816 63.6165C45.1229 63.5378 44.637 63.3772 44.028 63.1838C43.8563 63.0264 43.6555 62.9051 43.4417 62.8166C43.8887 62.8428 44.339 62.8428 44.786 62.8166C45.0127 62.9445 45.2136 63.1117 45.3852 63.3084C45.5537 63.4329 45.7027 63.6755 45.9618 63.7771C46.221 63.8788 46.5384 64.0066 47.0891 64.2099C47.643 64.4164 48.8837 64.0165 50.1599 64.2099C50.5551 64.2656 52.0128 63.3083 51.6629 63.3313C51.4006 63.3116 51.1414 63.2526 50.8952 63.1608C51.2904 63.0461 52.2946 62.02 51.9577 62.1314C51.4848 62.1642 51.0086 62.1314 50.5454 62.0298C50.8628 61.7675 51.3455 61.0824 51.122 61.2069C50.6296 61.2069 50.1437 61.125 49.6773 60.9676H49.4408H49.5542C50.2215 60.6365 50.9211 60.2464 51.5982 59.8268C52.1715 60.0005 52.7319 60.2103 53.2793 60.4562C53.5903 60.5054 53.8948 60.5841 54.1928 60.6857C54.7759 60.666 55.3525 60.5349 55.8869 60.2988C56.4862 60.1054 56.4052 59.7382 56.9591 59.535C57.513 59.3285 57.986 58.7908 57.6815 58.9646C57.1632 59.0236 56.6417 58.9678 56.1461 58.8039C56.2595 58.8039 56.1461 58.6662 56.8458 58.0827C57.1405 57.8073 57.3867 56.814 57.1049 57.0303C56.8976 57.1156 56.6741 57.1451 56.4506 57.1221C56.632 56.8009 56.8231 55.8305 56.6546 56.06C56.3923 56.3255 56.0748 56.532 55.7282 56.6664C56.1428 56.3255 56.5218 55.9419 56.8555 55.5256C57.0984 55.4174 57.3511 55.3354 57.6102 55.2863C57.9504 55.2863 58.9545 55.4108 59.2007 55.1617C59.4501 54.9093 59.8226 54.4405 59.9555 54.3618C60.2567 53.9782 60.4964 53.552 60.6681 53.0931C60.9596 52.598 61.3451 52.1653 61.7954 51.8145C61.3613 51.7358 60.9175 51.7358 60.4867 51.8145C60.5547 51.3851 60.7167 50.9753 60.9596 50.6146C60.9596 50.6146 59.8324 50.913 59.5473 50.9589C59.123 50.9556 58.7181 51.1228 58.42 51.4277L58.7828 50.1262C58.799 50.0344 58.8217 49.9426 58.8509 49.8508C58.9869 49.6344 59.1942 49.4771 59.4372 49.4049C60.2729 49.1197 61.0276 49.0607 61.3321 48.7526L61.9087 48.1231C62.129 47.8576 62.3007 47.556 62.4173 47.2314C62.5371 46.7888 62.6311 46.3364 62.6991 45.884ZM59.6866 45.0611C59.651 45.6611 59.5635 46.2577 59.4275 46.8446C59.4145 46.6052 59.3529 46.3725 59.2461 46.1594C59.123 45.907 58.9513 45.907 58.8735 45.6447C58.7958 45.3824 58.501 45.3005 58.3326 45.0972C58.1771 44.93 58.0087 44.7759 57.824 44.6415C57.7009 45.1661 57.6718 45.707 57.7333 46.2413C57.7689 46.3266 57.7916 46.4151 57.8013 46.5036L57.5746 46.3561C57.3608 46.8577 57.5746 47.3724 57.6977 47.8313C57.7722 48.0412 57.8726 48.2411 57.9925 48.4247C58.0702 48.5952 57.9925 48.7558 58.1156 48.8935C58.2386 49.0312 58.3747 49.0181 58.5658 49.1918C58.5658 49.4181 58.6014 49.641 58.6662 49.8541C58.5075 50.4016 58.3261 50.9949 58.135 51.5096C58.1188 51.3031 58.054 51.1031 57.9439 50.9261C57.7754 50.7359 57.6491 50.5163 57.5714 50.2737C57.4029 49.818 57.0628 49.818 57.0174 49.3492C56.9429 49.6836 56.8911 50.0245 56.8587 50.3655C56.8263 50.6605 56.849 50.9589 56.9267 51.2441C56.9429 51.4375 56.9138 51.6342 56.849 51.8145C56.8522 51.5621 56.7972 51.3129 56.6903 51.0834C56.6061 50.9261 56.5737 50.7458 56.5996 50.5687C56.4214 50.8802 56.2044 51.1687 55.955 51.4244L55.8092 51.1621C57.9989 47.2773 57.4904 40.6288 57.3997 39.7371C57.7625 39.6683 57.6944 39.4749 57.6944 39.4749L57.5714 38.9831C57.6037 39.0126 57.6426 39.0323 57.6847 39.0389H57.7625C57.8111 39.0552 57.8629 39.0552 57.9082 39.0389C57.9698 38.993 58.0087 38.9208 58.0087 38.8454C58.1253 39.0061 58.2808 39.1306 58.4589 39.2126C58.7634 39.3044 59.0128 39.4421 59.0452 39.5568C59.2331 40.3567 59.3756 41.1632 59.4728 41.9795C59.1456 41.6025 59.0549 40.8387 58.3455 40.4944C58.365 40.6649 58.365 40.8387 58.3455 41.0091C58.2937 41.2255 58.271 41.4484 58.2775 41.6714C58.0475 41.5238 57.8532 41.3304 57.7009 41.1009C57.6297 41.6451 57.688 42.1959 57.8694 42.7106C58.1739 43.2581 58.1739 43.5564 58.4913 43.6711C58.6792 43.74 58.8509 43.8449 58.9999 43.9793C59.1489 44.0875 59.3238 44.1596 59.5084 44.1858C59.5538 44.1858 59.5991 44.2121 59.6218 44.2547C59.6348 44.3399 59.6574 44.4252 59.6898 44.5071C59.6898 44.6677 59.6898 44.8841 59.6801 45.0677L59.6866 45.0611ZM30.4814 40.4912L32.7392 42.068C32.7133 42.9106 32.8201 43.7498 33.0566 44.5596L31.2167 47.6773C30.8993 47.0249 30.1316 44.8317 30.4814 40.4912ZM27.0964 38.652C27.1774 38.5012 27.3166 38.393 27.4786 38.3537C27.4948 38.5242 27.443 38.6946 27.3328 38.8225C27.3102 38.8684 27.268 38.9012 27.2195 38.9143C27.1838 38.9274 27.1417 38.9274 27.1061 38.9143C27.0964 38.8913 27.0931 38.8684 27.0964 38.8454C27.0672 38.7831 27.0672 38.7143 27.0964 38.652ZM34.4009 33.4296L36.1274 35.4163C36.0205 36.5342 36.1404 37.662 36.4773 38.7307L34.8641 41.4615C34.5143 40.6616 33.7239 38.3209 34.3912 33.4296H34.4009ZM41.3103 32.1609C42.0942 32.0167 42.8975 32.0167 43.6814 32.1609L43.9308 32.5838C42.9817 32.374 42.0002 32.374 41.0511 32.5838L41.3103 32.1609ZM41.5143 31.8167L42.4958 30.148L43.4773 31.8036C42.823 31.7151 42.1557 31.7183 41.5014 31.8134H41.5111L41.5143 31.8167ZM40.8373 32.9575C41.9225 32.6559 43.0692 32.6559 44.1576 32.9575L44.4297 33.4132C43.1793 32.9707 41.8188 32.9707 40.5685 33.4132L40.8406 32.9575H40.8373ZM40.2964 33.8722C41.699 33.2592 43.2862 33.2592 44.6888 33.8722L51.4621 45.3759H48.9905L48.6634 45.1464L48.55 45.0316C48.388 44.9169 48.1872 44.8808 47.9961 44.93C47.8924 44.9464 47.7953 44.9825 47.7013 45.0316C47.6074 45.0775 47.5199 45.1366 47.4422 45.2021H47.3191C47.1053 45.0874 46.9012 44.953 46.7101 44.8022C46.655 44.7464 46.5903 44.7005 46.519 44.6645C46.4056 44.6022 46.276 44.5694 46.1465 44.5727C46.0558 44.5628 45.9651 44.5628 45.8744 44.5727C45.7513 44.6186 45.6347 44.6743 45.5245 44.7431L45.3205 44.8907C45.1941 44.812 45.0613 44.7432 44.9253 44.6841C44.7989 44.635 44.6791 44.5727 44.5625 44.5006C44.4005 44.4022 44.245 44.294 44.0993 44.1694L43.9308 44.0449C43.8077 43.976 43.6749 43.9334 43.5356 43.9203C43.4384 43.9039 43.338 43.9039 43.2409 43.9203C43.1145 43.9432 42.9914 43.9924 42.8781 44.058L42.6967 44.1727V40.2092C43.1145 40.2092 43.432 40.0387 43.432 39.8552C43.3542 39.2454 43.1178 38.6717 42.742 38.1865C42.4893 38.0193 42.1622 38.0193 41.9063 38.1865C41.9063 38.1865 41.3977 38.4946 41.6569 38.9176C41.6569 38.9176 41.6569 39.0421 41.9387 38.9176C42.0358 38.8815 42.1039 38.793 42.1201 38.6881V38.8356C42.1201 38.9831 41.916 39.0651 41.9063 39.0749C41.8026 39.3372 41.7314 39.6093 41.6925 39.8847C41.6925 40.0682 42.0197 40.2158 42.4375 40.2387V44.2842C42.2658 44.176 42.1006 44.058 41.9419 43.9301C41.8868 43.8777 41.8253 43.8318 41.7605 43.7924C41.6374 43.7236 41.5046 43.681 41.3653 43.6679C41.2519 43.6515 41.1386 43.6515 41.0252 43.6679C40.8924 43.7006 40.7628 43.7498 40.643 43.8154C40.5231 43.8842 40.4065 43.9596 40.2931 44.0449L40.1474 43.9531L39.9206 43.8383C39.8137 43.8055 39.7133 43.7597 39.6161 43.7006C39.3375 43.5564 39.0752 43.3794 38.8387 43.1761L38.7707 43.1204C38.586 42.9729 38.3625 42.8811 38.1261 42.8581H37.9447C37.7924 42.8778 37.6466 42.9171 37.5041 42.9729C37.3389 43.0417 37.1867 43.1302 37.0409 43.2351C36.8757 43.3466 36.7235 43.4744 36.5777 43.6121C36.3963 43.7957 36.2279 43.9891 36.0594 44.1957C35.9007 44.3891 35.7549 44.5956 35.6318 44.812C35.5314 44.9366 35.4278 45.0546 35.3144 45.1661L35.1006 45.3595H33.4972L40.2931 33.8656L40.2964 33.8722ZM50.0822 41.4484L48.4787 38.7176C48.8156 37.6488 48.9355 36.5211 48.8286 35.4032L50.5907 33.4263C51.258 38.3176 50.4547 40.6485 50.0725 41.4451H50.0822V41.4484ZM57.5228 38.3537C57.6847 38.3963 57.824 38.5045 57.905 38.652C57.9212 38.7012 57.9212 38.7536 57.905 38.7995C57.918 38.8323 57.918 38.8684 57.905 38.9012C57.8694 38.9143 57.8273 38.9143 57.7916 38.9012C57.7398 38.8848 57.6977 38.852 57.6685 38.8094C57.5616 38.6815 57.5066 38.5176 57.5098 38.3537H57.5195H57.5228ZM53.7749 47.6871L51.935 44.5563C52.1747 43.7498 52.2784 42.9073 52.2395 42.0648L54.4973 40.4879C54.8471 44.8186 54.0794 47.0118 53.762 47.6871H53.7717H53.7749ZM29.8983 51.4113L31.6151 48.5198H52.7027L52.6023 48.4641C52.476 48.3887 52.3561 48.3067 52.2395 48.2116C52.0257 48.0412 51.8346 47.8674 51.6403 47.6871C51.4491 47.5035 51.0993 47.1494 50.8272 46.8773L50.3186 46.3167L50.0919 46.0774C49.9494 45.9397 49.7939 45.8184 49.6287 45.7103L49.4019 45.5857H51.6597L55.0804 51.4113H29.8951H29.8983ZM33.3741 45.5168H34.673C34.4236 45.7299 34.1644 45.9365 33.8956 46.1332H33.8178L33.4 46.4184C33.1732 46.5889 32.9724 46.7724 32.7683 46.956L32.1691 47.5265L33.3773 45.5168H33.3741ZM42.4051 44.7169L42.5509 44.7858L42.7193 44.8546C42.8651 44.9399 43.0044 45.0349 43.1372 45.1398C43.3607 45.3201 43.568 45.5201 43.7591 45.7332C44.041 46.0545 44.3357 46.3725 44.6402 46.6806L45.0127 47.0675C45.3302 47.3888 45.6444 47.6969 45.9845 47.992L46.0525 48.0477H44.4491L44.3357 47.9559C44.109 47.7723 43.8855 47.5887 43.6684 47.3855C43.4514 47.1822 43.1728 46.9298 42.9331 46.7003C42.4148 46.1758 41.9063 45.648 41.4204 45.1005L41.1612 44.8153C40.9734 44.612 40.7693 44.4252 40.5523 44.2547C40.6559 44.176 40.7693 44.1104 40.8924 44.0613H41.1062C41.2293 44.0481 41.3556 44.0744 41.469 44.1301C41.524 44.1596 41.5759 44.1957 41.6277 44.2317C41.7508 44.3334 41.8771 44.4383 42.0099 44.5301C42.1492 44.6153 42.2917 44.6907 42.4375 44.7595L42.4051 44.7136V44.7169ZM49.0424 45.8578H49.1201L49.3015 45.9496C49.457 46.0414 49.6028 46.1528 49.7291 46.2807C49.8166 46.3594 49.9008 46.4413 49.9785 46.5331C50.1275 46.7069 50.2863 46.8806 50.4515 47.0478L50.892 47.5035C51.0604 47.6871 51.2548 47.8707 51.433 48.0412H50.5065L50.0109 47.5953C49.8425 47.4478 49.6935 47.2871 49.538 47.1396C49.1979 46.7954 48.861 46.4413 48.5435 46.0873L48.3395 45.8578C48.1775 45.6939 48.0026 45.5398 47.8212 45.4021C47.9022 45.3529 47.9896 45.3136 48.0803 45.2874C48.1613 45.2611 48.2488 45.2611 48.3297 45.2874L48.4204 45.3562C48.6148 45.5562 48.8351 45.7266 49.0748 45.8709L49.0424 45.8611V45.8578ZM47.8017 45.9824C47.9281 46.0873 48.0479 46.2086 48.1516 46.3364L48.8869 47.1232C49.1136 47.3625 49.3371 47.592 49.5769 47.8084L49.8587 48.0707H48.55L48.2909 47.8543L47.5912 47.215L47.209 46.838C46.8688 46.4938 46.5319 46.1397 46.2048 45.7758L45.991 45.5365C45.8744 45.4087 45.7513 45.2906 45.6185 45.1824C45.7027 45.1202 45.7934 45.0677 45.8906 45.0218H46.0946C46.1627 45.0054 46.2307 45.0054 46.2987 45.0218L46.4218 45.1136C46.6259 45.2742 46.8397 45.4218 47.0664 45.5463L47.2705 45.625L47.4292 45.6939C47.5782 45.7791 47.7175 45.8775 47.8471 45.9922L47.8147 45.9824H47.8017ZM45.8031 45.9824C45.9845 46.1987 46.1756 46.4053 46.3667 46.5987C46.5579 46.7921 46.7166 46.9757 46.885 47.1462C47.0535 47.3166 47.494 47.7527 47.8115 48.0379L47.8892 48.1067H46.7166L46.4672 47.9002C46.1853 47.6609 45.9262 47.4216 45.6671 47.1691L45.2492 46.7462C44.8767 46.379 44.5268 45.9922 44.177 45.6054L43.9276 45.3431C43.7235 45.1202 43.4968 44.9235 43.2506 44.7497C43.1404 44.6743 43.0238 44.6087 42.9007 44.5563C43.0012 44.4842 43.1178 44.435 43.2409 44.4088C43.3056 44.3989 43.3704 44.3989 43.432 44.4088C43.5032 44.3924 43.5745 44.3924 43.6458 44.4088L43.7818 44.5104C44.0345 44.7202 44.3131 44.9005 44.6046 45.048H44.7277L44.9415 45.1497C45.0905 45.2447 45.2362 45.3529 45.3691 45.4709C45.5407 45.6217 45.6962 45.7889 45.8323 45.9725L45.7999 45.9824H45.8031ZM40.6656 45.012C40.779 45.1267 40.8794 45.2513 40.9831 45.366C41.0867 45.4808 41.2325 45.6283 41.3459 45.766C41.4593 45.9037 41.7864 46.2348 42.0002 46.4643C42.3922 46.8741 42.7971 47.274 43.2182 47.6641L43.7138 48.0969H32.2565L32.425 47.9264L32.9432 47.4248L33.6105 46.8544L34.0511 46.5561L34.1742 46.4643C34.5434 46.2118 34.89 45.9299 35.214 45.6185C35.3986 45.4447 35.5735 45.2546 35.7322 45.0579C35.8683 44.8415 36.0141 44.635 36.1728 44.4284C36.3315 44.2219 36.4449 44.1203 36.5906 43.9727C36.7364 43.8187 36.8984 43.681 37.0765 43.563C37.1899 43.4843 37.313 43.4154 37.4393 43.3564L37.7114 43.2876C37.8702 43.2646 38.0354 43.2974 38.1746 43.3794C38.2459 43.3826 38.3204 43.3958 38.3884 43.4121C38.518 43.5236 38.6541 43.6285 38.7933 43.7203L39.289 44.0186L39.5708 44.1432L39.7619 44.235C39.9206 44.3235 40.0729 44.4284 40.2121 44.5432C40.3838 44.6841 40.5458 44.8382 40.698 44.9989L40.6656 45.0087V45.012ZM38.058 52.2341C38.6152 52.6505 39.2501 52.9587 39.9206 53.1357C37.9414 53.7225 35.81 53.3914 34.0964 52.2341H38.058ZM42.0197 54.6109C42.0197 54.6109 42.2917 53.1488 42.4472 52.2341C42.606 53.1488 42.8878 54.6109 42.8878 54.6109C42.9655 55.106 42.8165 55.6108 42.4829 55.9813C42.1427 55.6075 41.984 55.1027 42.0553 54.5978L42.0229 54.6077L42.0197 54.6109ZM46.8397 52.2341H50.8013C49.0877 53.3914 46.9531 53.7225 44.9771 53.1357C45.6606 52.9587 46.3052 52.6472 46.8721 52.221L46.8397 52.2309V52.2341ZM56.9332 37.8488C56.9105 37.7964 56.9105 37.7406 56.9332 37.6882C56.9267 37.6652 56.9267 37.6423 56.9332 37.6193C57.0693 37.7177 57.1859 37.8357 57.2831 37.9734C57.2895 38.0226 57.2895 38.0717 57.2831 38.1209C57.1502 38.0652 57.0369 37.9636 56.9656 37.8357L56.9332 37.8455V37.8488ZM53.8527 30.8463C53.7847 30.9053 53.6842 30.9053 53.6162 30.8463C53.4931 30.7479 53.4089 30.6037 53.3797 30.4463C53.5385 30.4562 53.6875 30.525 53.7976 30.6398C53.8592 30.6889 53.8818 30.7709 53.8527 30.8463ZM53.5255 29.7054L53.9661 29.5579L53.8656 30.0267H53.5028L53.5255 29.7054ZM52.6898 29.7972C52.7222 29.7874 52.7578 29.7874 52.7902 29.7972C52.8388 29.7776 52.8906 29.7776 52.936 29.7972C53.0558 29.8956 53.14 30.0333 53.1724 30.1841H53.0947C52.9586 30.1546 52.8323 30.089 52.7319 29.9907C52.6444 29.9415 52.612 29.83 52.6606 29.7415C52.6671 29.7284 52.6768 29.7153 52.6865 29.7054V29.7972H52.6898ZM43.0368 24.3486C43.1372 24.3486 43.2279 24.3486 43.2279 24.4962C43.2279 24.6437 43.1372 24.6437 43.0368 24.6437C42.8716 24.6502 42.7064 24.5978 42.5736 24.4962C42.6902 24.365 42.8619 24.2929 43.0368 24.3027V24.3486ZM42.4829 23.4569L42.7193 23.8798L42.4926 24.1552L42.2561 23.8798L42.4829 23.4569ZM41.8966 24.6568C41.8415 24.6568 41.7897 24.6371 41.7508 24.6011C41.7378 24.5716 41.7378 24.5388 41.7508 24.5093C41.7378 24.4798 41.7378 24.447 41.7508 24.4175C41.8026 24.3978 41.8577 24.3978 41.9095 24.4175C42.0747 24.3978 42.2399 24.4535 42.3598 24.565C42.214 24.6339 42.052 24.6502 41.8966 24.6109V24.6568ZM42.3922 27.4204C42.6157 27.0664 42.7874 26.6828 42.9007 26.2796C43.053 27.1877 43.0011 28.1154 42.742 28.9973L42.5282 28.6433L41.8285 29.7841C41.7638 28.9547 41.9613 28.1253 42.3922 27.4204ZM32.0395 29.7972C32.0848 29.7743 32.1399 29.7743 32.1853 29.7972C32.2144 29.7808 32.2468 29.7808 32.2759 29.7972C32.2889 29.8267 32.2889 29.8595 32.2759 29.889C32.2759 29.948 32.2468 30.007 32.1982 30.0365C32.0913 30.1578 31.9423 30.23 31.7803 30.2431C31.7868 30.0529 31.884 29.8792 32.0395 29.7743V29.7972ZM30.9997 29.535L31.4499 29.6825V30.0497H31.1001L30.9997 29.535ZM31.2135 30.8496C31.1843 30.8594 31.1519 30.8594 31.1228 30.8496C31.1098 30.8168 31.1098 30.7807 31.1228 30.7479C31.1228 30.6889 31.1552 30.6332 31.2005 30.6004C31.3074 30.4824 31.4499 30.4103 31.6054 30.3939C31.573 30.5644 31.4856 30.7152 31.356 30.8266C31.3107 30.8529 31.2588 30.8594 31.2102 30.8496H31.2135ZM27.9969 37.8521C27.9094 37.9931 27.7701 38.0947 27.6147 38.1373C27.6082 38.0914 27.6082 38.0455 27.6147 37.9996C27.7086 37.8521 27.8317 37.7275 27.9774 37.6324C27.9872 37.662 27.9872 37.6947 27.9774 37.7242C27.9969 37.7636 28.0066 37.8062 28.0001 37.8488L27.9969 37.8521ZM25.2889 44.4317L25.3569 44.1793C25.3796 44.1399 25.4152 44.117 25.4573 44.1104C25.6419 44.0842 25.8136 44.0154 25.9659 43.9039C26.1181 43.7728 26.2898 43.6679 26.4744 43.5957C26.8016 43.481 26.8016 43.1859 27.0964 42.6352C27.2778 42.1205 27.3361 41.5664 27.2648 41.0255C27.119 41.255 26.9279 41.4517 26.7012 41.5959C26.6979 41.373 26.672 41.1501 26.6234 40.9337C26.604 40.7633 26.604 40.5895 26.6234 40.419C25.8784 40.8059 25.8007 41.5599 25.4962 41.9041C25.5836 41.0878 25.7229 40.2813 25.914 39.4814C26.0695 39.3011 26.2801 39.1798 26.5133 39.1372C26.685 39.0552 26.8372 38.9339 26.9538 38.7831C26.9603 38.8618 27.0024 38.9339 27.0672 38.9766C27.1158 38.993 27.1676 38.993 27.213 38.9766H27.2907C27.3328 38.9667 27.3717 38.9471 27.4041 38.9208L27.3264 39.3536C27.3264 39.3536 27.2713 39.547 27.6211 39.6158C27.5434 40.5305 27.0348 47.1921 29.2343 51.0408L29.0756 51.2933C28.8294 51.0343 28.6123 50.7458 28.4309 50.4376C28.4569 50.6146 28.4309 50.7917 28.3532 50.9523C28.2366 51.1785 28.1783 51.4277 28.1848 51.6834C28.1297 51.4998 28.1005 51.3064 28.107 51.113C28.1912 50.8277 28.2172 50.5294 28.1848 50.2344C28.1524 49.8934 28.1005 49.5525 28.026 49.2181C28.026 49.6869 27.6438 49.6869 27.4721 50.1426C27.3879 50.3917 27.2616 50.6245 27.0996 50.8277C26.9798 50.9982 26.9085 51.2015 26.8955 51.4113C26.7044 50.8638 26.523 50.2704 26.3643 49.7557C26.4291 49.5426 26.4647 49.3164 26.4647 49.0935C26.6558 48.923 26.8372 48.9099 26.915 48.7952C26.9927 48.6804 26.915 48.4968 27.051 48.3264C27.1644 48.1395 27.2583 47.9395 27.3328 47.733C27.5272 47.2675 27.5693 46.7528 27.4559 46.2577L27.2292 46.3495C27.2357 46.261 27.2551 46.1725 27.2842 46.0873C27.3458 45.5529 27.3199 45.012 27.2065 44.4874C27.0219 44.6219 26.8534 44.7759 26.6979 44.9431C26.5295 45.1497 26.2347 45.2415 26.157 45.4906C26.0792 45.7398 25.8978 45.7529 25.7845 46.0053C25.6743 46.2184 25.6095 46.4512 25.5934 46.6905C25.4638 46.1233 25.3796 45.5463 25.3342 44.9661C25.2889 44.8743 25.2791 44.6579 25.2889 44.4284V44.4317ZM44.1867 61.9806C43.7948 61.9806 43.4061 62.0724 43.0595 62.256C43.5032 61.502 43.9924 60.7775 44.5268 60.0857C44.7633 60.7316 44.6337 61.4594 44.1867 61.9839V61.9806ZM41.929 62.256C41.5791 62.0757 41.1936 61.9839 40.8017 61.9806C40.332 61.4561 40.1895 60.7119 40.4292 60.0497C40.9669 60.7381 41.456 61.4626 41.8966 62.2199L41.929 62.2527V62.256ZM54.8083 56.909C54.818 56.873 54.818 56.8336 54.8083 56.7943C54.9022 56.532 54.9605 56.2599 54.9767 55.9846C54.9281 55.6403 54.8407 55.3027 54.7176 54.9781C54.6042 54.6699 54.3127 53.9618 54.0179 53.8372C54.0179 53.8372 53.7685 54.6372 53.6907 54.9781C53.6357 55.2633 53.532 55.5387 53.3862 55.7879L53.2048 56.1091C53.1822 55.9223 53.1822 55.7354 53.2048 55.5485C53.2048 54.9879 52.3821 54.1093 52.3821 54.1093C52.3561 54.6175 52.2104 55.1125 51.9545 55.5485C51.718 55.9124 51.5625 56.3288 51.5042 56.7582C51.4815 57.0566 51.3617 57.3352 51.1641 57.5582C50.9147 57.9122 51.1641 59.3514 51.1641 59.512C50.6102 59.8661 50.0368 60.2103 49.4829 60.4824L48.942 60.7349L49.0424 60.6332C49.4343 60.2857 49.7226 59.8333 49.8781 59.3317C50.1372 59.3317 49.5283 59.217 49.1784 59.2531C49.3825 58.9318 49.6643 58.499 49.8684 58.1122C50.0725 57.7253 48.5241 58.2138 48.5241 58.2138L48.1192 58.3745C48.2293 58.0237 48.3135 57.6631 48.3686 57.2992C48.3686 57.1746 47.724 57.391 47.2413 57.6073C46.8721 57.8335 46.519 58.0892 46.1918 58.3712C45.7416 58.6564 45.6833 59.3875 45.4792 59.7317C45.3755 59.9153 45.2848 60.1054 45.2071 60.3021C45.2071 59.9579 45.0484 59.8005 44.9123 59.7317H44.8346L44.339 59.653C43.9017 59.5743 43.4611 59.7612 43.2117 60.1316C42.9817 60.7086 42.7971 61.3053 42.6578 61.9151C42.5898 61.9019 42.5217 61.9019 42.4537 61.9151C42.3889 61.9052 42.3241 61.9052 42.2626 61.9151C42.1525 61.2823 41.9873 60.6595 41.7767 60.053C41.5273 59.6825 41.0835 59.4956 40.6494 59.5743L40.1538 59.653H40.0761C39.9174 59.7317 39.7716 59.9513 39.7586 60.4398C39.7101 60.1579 39.6064 59.8923 39.4542 59.653C39.2501 59.3088 39.1821 58.5777 38.7415 58.2925C38.4079 58.0106 38.0548 57.7516 37.679 57.5286C37.1705 57.3123 36.5518 57.0959 36.5518 57.2205C36.6004 57.5844 36.6813 57.945 36.7882 58.2958L36.3931 58.1351C36.3931 58.1351 34.89 57.7352 35.039 58.0335C35.1848 58.3318 35.5249 58.8433 35.7387 59.1744C35.3759 59.1744 34.7669 59.1744 35.0261 59.2531C35.1719 59.7481 35.4375 60.1972 35.8035 60.5546L35.9169 60.6562C35.7128 60.5775 35.5346 60.4857 35.363 60.4037C34.822 60.1284 34.2357 59.7874 33.6818 59.4334C33.6818 59.2727 33.9992 57.8335 33.7498 57.4795C33.5555 57.2565 33.4356 56.9779 33.4097 56.6796C33.3449 56.2468 33.1862 55.8337 32.9465 55.4699C32.6873 55.0338 32.5448 54.5388 32.5286 54.0307C32.5286 54.0307 31.6475 54.9093 31.6929 55.4699C31.7123 55.6567 31.7123 55.8436 31.6929 56.0305C31.6378 55.919 31.573 55.8108 31.5018 55.7092C31.3592 55.4567 31.2621 55.1814 31.207 54.8994C31.1163 54.6142 30.8798 53.7586 30.8798 53.7586C30.5753 53.8831 30.2935 54.5913 30.1672 54.8994C30.0473 55.224 29.9631 55.5616 29.9178 55.9059C29.8627 56.1124 30.0409 56.5124 30.0862 56.7156C30.0797 56.755 30.0797 56.791 30.0862 56.8304C29.4384 56.3681 28.8812 55.7911 28.4374 55.1289C28.4536 54.9683 28.5152 54.8175 28.6188 54.6962C28.8812 54.4077 29.0885 54.0733 29.2408 53.7127C29.2861 53.4602 29.2861 53.2012 29.2408 52.9488C29.2667 52.6964 29.3088 52.444 29.3639 52.1948H30.0635C33.2251 54.6568 37.4458 55.2305 41.1386 53.7028C41.1191 53.7684 41.09 53.834 41.0608 53.8963C41.0608 53.8963 39.9336 55.4502 42.4829 55.9747C45.0451 55.4502 43.9179 53.8963 43.9179 53.8963C43.8822 53.834 43.8498 53.7684 43.8272 53.7028C47.5005 55.2273 51.6953 54.6732 54.8569 52.2407H55.5695C55.6213 52.4899 55.6569 52.7423 55.6829 52.9947C55.644 53.2471 55.644 53.5061 55.6829 53.7586C55.8351 54.1192 56.0489 54.4536 56.3145 54.7421C56.4052 54.8699 56.4635 55.0207 56.483 55.1748C56.0424 55.8534 55.482 56.4435 54.8245 56.9123H54.8147L54.8083 56.909Z" fill="white"/>
<path d="M50.7331 58.3714C50.6035 58.3648 50.4902 58.4665 50.4837 58.6009C50.4837 58.6042 50.4837 58.6074 50.4837 58.614C50.4772 58.7517 50.5841 58.8697 50.7201 58.8763C50.7234 58.8763 50.7266 58.8763 50.7331 58.8763C50.8691 58.8763 50.9825 58.7648 50.9825 58.6238C50.9825 58.6205 50.9825 58.6173 50.9825 58.6107C50.976 58.4763 50.8659 58.3714 50.7331 58.3714Z" fill="white"/>
<path d="M52.1556 60.127C52.0131 60.127 51.8965 60.245 51.8965 60.3892C51.8965 60.5269 52.0066 60.6416 52.1459 60.6416C52.1491 60.6416 52.1524 60.6416 52.1589 60.6416C52.2949 60.6416 52.4083 60.5302 52.4083 60.3892C52.4083 60.2483 52.2982 60.1335 52.1589 60.127H52.1556Z" fill="white"/>
<path d="M55.4497 54.5547C55.3137 54.5547 55.2003 54.6662 55.2003 54.8072C55.2003 54.8105 55.2003 54.8137 55.2003 54.8203C55.2003 54.958 55.3104 55.0727 55.4497 55.0727C55.5858 55.0727 55.6992 54.9613 55.6992 54.8203C55.7056 54.6826 55.5987 54.5646 55.4627 54.558C55.4595 54.558 55.4562 54.558 55.4497 54.558V54.5547Z" fill="white"/>
<path d="M57.2246 55.8242C57.2246 55.9783 57.3445 56.1029 57.4967 56.1094C57.6522 56.1094 57.7785 55.9816 57.7785 55.8242C57.772 55.6701 57.649 55.5488 57.4967 55.5488C57.3509 55.5587 57.2376 55.6767 57.2246 55.8242Z" fill="white"/>
<path d="M57.8658 49.8477C58.0148 49.8543 58.1412 49.7363 58.1476 49.5855C58.1476 49.5822 58.1476 49.5789 58.1476 49.5723C58.18 49.4183 58.0796 49.2675 57.9274 49.2347C57.7751 49.2019 57.6261 49.3035 57.5937 49.4576C57.5872 49.4937 57.5872 49.533 57.5937 49.5723C57.5937 49.7231 57.7136 49.8477 57.8658 49.8477Z" fill="white"/>
<path d="M58.702 44.2247C58.553 44.2181 58.4266 44.3362 58.4202 44.487C58.4202 44.4902 58.4202 44.4935 58.4202 44.5001C58.4202 44.6574 58.5465 44.7853 58.702 44.7853C58.8542 44.7787 58.9741 44.6542 58.9741 44.5001C58.9806 44.3558 58.8704 44.2312 58.7247 44.2247C58.7182 44.2247 58.7085 44.2247 58.702 44.2247Z" fill="white"/>
<path d="M60.2506 39.6549C60.3996 39.6615 60.5259 39.5434 60.5324 39.3926C60.5324 39.2353 60.4061 39.1074 60.2506 39.1074C60.0984 39.114 59.9785 39.2386 59.9785 39.3926C59.9915 39.5369 60.1048 39.6516 60.2506 39.6549Z" fill="white"/>
<path d="M58.2974 40.17C58.4529 40.17 58.5793 40.0422 58.5793 39.8848C58.5793 39.7275 58.4529 39.5996 58.2974 39.5996C58.142 39.5996 58.0156 39.7275 58.0156 39.8848C58.0156 40.0422 58.142 40.17 58.2974 40.17Z" fill="white"/>
<path d="M56.6479 35.6121C56.6414 35.4613 56.5151 35.3433 56.3661 35.3499C56.2203 35.3499 56.1005 35.4646 56.094 35.6121C56.0616 35.7662 56.162 35.917 56.3142 35.9498C56.4665 35.9826 56.6155 35.881 56.6479 35.7269C56.6544 35.6908 56.6544 35.6515 56.6479 35.6121Z" fill="white"/>
<path d="M57.8339 34.7218C57.9861 34.7545 58.1351 34.6529 58.1675 34.4988C58.1999 34.3448 58.0995 34.194 57.9473 34.1612C57.9116 34.1546 57.8727 34.1546 57.8339 34.1612C57.6849 34.1612 57.5618 34.2825 57.5618 34.4365C57.5553 34.5874 57.6719 34.7152 57.8209 34.7218C57.8242 34.7218 57.8274 34.7218 57.8339 34.7218Z" fill="white"/>
<path d="M60.6006 44.5566C60.6071 44.7074 60.7334 44.8255 60.8824 44.8189C61.0282 44.7894 61.1221 44.6419 61.093 44.4943C61.0703 44.3862 60.9893 44.3042 60.8824 44.2812C60.7302 44.2812 60.6071 44.4025 60.6006 44.5566Z" fill="white"/>
<path d="M34.2387 58.3714C34.1091 58.3779 34.0022 58.4796 33.9893 58.6107C33.9893 58.7517 34.0994 58.8664 34.2387 58.873C34.3812 58.873 34.4978 58.7549 34.4978 58.6107C34.4913 58.473 34.3747 58.3648 34.2387 58.3714Z" fill="white"/>
<path d="M33.0759 60.3931C33.0759 60.2522 32.9658 60.1374 32.8265 60.1309C32.684 60.1374 32.5739 60.2522 32.5674 60.3931C32.5674 60.5308 32.6775 60.6456 32.8168 60.6456C32.82 60.6456 32.8233 60.6456 32.8298 60.6456C32.9658 60.6456 33.0792 60.5341 33.0792 60.3931H33.0759Z" fill="white"/>
<path d="M29.519 54.5544C29.3829 54.5544 29.2695 54.6658 29.2695 54.8068C29.2695 54.8101 29.2695 54.8134 29.2695 54.8199C29.2695 54.9576 29.3797 55.0724 29.519 55.0724C29.6582 55.1019 29.7975 55.0133 29.8267 54.8691C29.8558 54.7281 29.7684 54.5872 29.6258 54.5577C29.5902 54.5511 29.5546 54.5511 29.519 54.5577V54.5544Z" fill="white"/>
<path d="M27.4784 56.1094C27.6339 56.1094 27.7602 55.9816 27.7602 55.8242C27.7473 55.6734 27.6274 55.5554 27.4784 55.5488C27.3294 55.5488 27.2063 55.6701 27.2063 55.8242C27.1998 55.975 27.3164 56.1029 27.4655 56.1094C27.4687 56.1094 27.4719 56.1094 27.4784 56.1094Z" fill="white"/>
<path d="M27.0937 49.2871C26.9414 49.2937 26.8216 49.4182 26.8216 49.5723C26.8151 49.7166 26.9252 49.8411 27.071 49.8477C27.0775 49.8477 27.0872 49.8477 27.0937 49.8477C27.2459 49.8477 27.369 49.7264 27.3755 49.5723C27.369 49.4182 27.2459 49.2937 27.0937 49.2871Z" fill="white"/>
<path d="M25.6613 50.0762C25.6613 49.9254 25.5415 49.8008 25.3892 49.8008C25.237 49.8008 25.1139 49.9221 25.1074 50.0762C25.1074 50.2335 25.2338 50.3614 25.3892 50.3614C25.5415 50.3548 25.6613 50.2302 25.6613 50.0762Z" fill="white"/>
<path d="M26.2573 44.7849C26.4128 44.7849 26.5391 44.657 26.5391 44.4997C26.5391 44.3489 26.4193 44.2243 26.267 44.2243C26.2638 44.2243 26.2605 44.2243 26.2541 44.2243C26.1051 44.2079 25.9723 44.3161 25.9561 44.4669C25.9561 44.4964 25.9561 44.5259 25.9593 44.5554C25.9884 44.6964 26.1115 44.7915 26.2541 44.7849H26.2573Z" fill="white"/>
<path d="M24.722 39.6547C24.8711 39.6547 24.9909 39.54 25.0039 39.3925C25.0039 39.2351 24.8775 39.1072 24.722 39.1072C24.573 39.1072 24.45 39.2285 24.45 39.3826C24.45 39.3859 24.45 39.3892 24.45 39.3957C24.45 39.54 24.5666 39.658 24.7091 39.658C24.7123 39.658 24.7156 39.658 24.722 39.658V39.6547Z" fill="white"/>
<path d="M26.6884 39.6097C26.5361 39.5769 26.3871 39.6785 26.3547 39.8326C26.3223 39.9867 26.4227 40.1375 26.575 40.1703C26.6106 40.1768 26.6495 40.1768 26.6884 40.1703C26.8374 40.1703 26.9605 40.049 26.9605 39.8949C26.9605 39.8916 26.9605 39.8883 26.9605 39.8818C26.9605 39.731 26.8406 39.6064 26.6884 39.6064V39.6097Z" fill="white"/>
<path d="M28.3369 35.6119C28.3369 35.766 28.4568 35.8905 28.609 35.8971C28.7645 35.8971 28.8908 35.7692 28.8908 35.6119C28.8779 35.4643 28.7548 35.3496 28.609 35.3496C28.4632 35.3496 28.3434 35.4643 28.3369 35.6119Z" fill="white"/>
<path d="M27.0935 34.7218C27.2458 34.7545 27.3948 34.6529 27.4272 34.4988C27.4596 34.3448 27.3592 34.194 27.2069 34.1612C27.1713 34.1546 27.1324 34.1546 27.0935 34.1612C26.9413 34.194 26.8409 34.3448 26.8733 34.4988C26.8959 34.6103 26.9834 34.6988 27.0935 34.7218Z" fill="white"/>
<path d="M24.3723 44.555C24.3787 44.4042 24.2621 44.2763 24.1131 44.2698C23.9641 44.2632 23.8378 44.3813 23.8313 44.5321C23.8248 44.6829 23.9414 44.8107 24.0905 44.8173C24.0937 44.8173 24.0969 44.8173 24.1002 44.8173C24.2459 44.8173 24.3658 44.7025 24.3723 44.555Z" fill="white"/>
<path d="M39.2305 40.6275C39.3536 40.6275 39.3892 40.6275 39.4345 40.7521H39.5123L39.4345 40.5816L39.9204 40.3751V40.2734L39.2434 40.5816L39.2337 40.6275H39.2305Z" fill="white"/>
<path d="M39.0721 39.7591H38.9814L39.0592 40.1361H39.4771V39.9886C39.422 39.9755 39.3799 39.9296 39.3637 39.8739C39.341 39.7821 39.3993 39.6903 39.4868 39.6673C39.571 39.6411 39.6585 39.6837 39.6876 39.769C39.6876 39.7722 39.6876 39.7788 39.6908 39.7821C39.6908 39.8739 39.6908 39.9427 39.6001 39.9657V40.0673C39.7168 40.028 39.7848 39.9001 39.7459 39.7821C39.7265 39.6444 39.6001 39.5493 39.4641 39.569C39.4511 39.569 39.4414 39.5723 39.4285 39.5755C39.2989 39.6018 39.2179 39.7296 39.2438 39.8608C39.2438 39.864 39.2438 39.8706 39.2438 39.8739C39.2568 39.9263 39.2892 39.9689 39.3345 39.9984H39.1305L39.0624 39.7591H39.0721Z" fill="white"/>
<path d="M39.1177 39.1426C39.2051 39.1459 39.2829 39.0902 39.3088 39.0049V38.8443C39.3088 38.7197 39.3088 38.6837 39.4546 38.6968C39.6003 38.7099 39.5679 38.8345 39.555 38.9033C39.542 38.9722 39.555 39.1098 39.3639 39.0967V39.1984C39.4384 39.2147 39.5161 39.1885 39.5679 39.1295C39.623 39.0705 39.6554 38.9951 39.6586 38.9131C39.6586 38.7755 39.6586 38.605 39.4546 38.5919C39.3574 38.5788 39.2699 38.6443 39.2505 38.7394L39.1728 38.9558C39.1663 39.0082 39.1242 39.0476 39.0723 39.0476C38.959 39.0476 38.9492 38.923 38.959 38.8541C38.9525 38.7656 39.0173 38.6902 39.1047 38.6837C39.1112 38.6837 39.1209 38.6837 39.1274 38.6837V38.582C39.0367 38.582 38.8909 38.582 38.8683 38.8672C38.8423 38.9918 38.9201 39.1131 39.0432 39.1393C39.0691 39.1459 39.0918 39.1459 39.1177 39.1393V39.1426Z" fill="white"/>
<path d="M39.8947 37.9756L39.817 37.9526L39.668 38.3886L39.4218 38.3067L39.5578 37.9198L39.4768 37.8838L39.3408 38.2837L39.127 38.2051L39.263 37.7822L39.1723 37.7461L39.0039 38.2837L39.7263 38.5132L39.8947 37.9756Z" fill="white"/>
<path d="M39.9986 37.8152L39.7265 37.6316L39.8496 37.4382C39.9208 37.3333 39.8949 37.1923 39.7912 37.1202C39.7848 37.1169 39.7783 37.1103 39.7686 37.1071C39.7232 37.0841 39.6682 37.0841 39.6228 37.1071C39.5613 37.1234 39.5062 37.1661 39.477 37.2218L39.3086 37.507L39.9403 37.907L39.9953 37.8152H39.9986ZM39.4349 37.4382L39.5483 37.2677C39.5483 37.2677 39.6163 37.189 39.6617 37.1988C39.7103 37.2382 39.7232 37.307 39.6843 37.3595C39.6779 37.3693 39.6714 37.3759 39.6617 37.3824L39.571 37.5431L39.4349 37.4414V37.4382Z" fill="white"/>
<path d="M39.9526 36.7301L40.4352 37.1989L40.4936 37.1202L40.0303 36.6613L40.2117 36.4678L40.1308 36.4121L39.7129 36.858L39.7712 36.9137L39.9526 36.7301Z" fill="white"/>
<path d="M40.8307 36.8448L40.3805 36.2383L40.3027 36.2973L40.753 36.9005L40.8307 36.8448Z" fill="white"/>
<path d="M41.4529 36.482L41.4075 36.4131L41.0026 36.6164L40.899 36.4L41.2488 36.1935L41.2164 36.1148L40.8439 36.3082L40.7435 36.105L41.1387 35.8984L41.103 35.8066L40.6074 36.0689L40.9573 36.7442L41.4529 36.482Z" fill="white"/>
<path d="M41.6341 36.4357L41.5337 35.98C41.524 35.921 41.524 35.8587 41.5337 35.7964L41.8836 36.38H41.9743L42.052 35.7178C42.0585 35.7801 42.0585 35.8391 42.052 35.9014L42.1427 36.3341H42.2431L42.0844 35.5801H41.9386L41.8706 36.2653L41.5208 35.6817H41.375L41.5434 36.4259L41.6341 36.4357Z" fill="white"/>
<path d="M42.6705 36.3081C42.8389 36.3081 42.9426 36.2295 42.9426 36.1016C42.9523 36.0131 42.894 35.9311 42.8065 35.9082C42.8713 35.882 42.9134 35.8197 42.907 35.7475C42.907 35.6459 42.907 35.5541 42.7158 35.541H42.3887V36.3049H42.6705V36.3081ZM42.502 35.6328H42.6608C42.7741 35.6328 42.8065 35.6328 42.8065 35.7344C42.8065 35.8361 42.7515 35.8361 42.6478 35.8262H42.4794L42.502 35.6328ZM42.6608 35.9639C42.7385 35.9639 42.8195 35.9639 42.8195 36.0885C42.8195 36.2131 42.8195 36.2131 42.6608 36.2131H42.4697V35.9738L42.6608 35.9639Z" fill="white"/>
<path d="M43.2018 36.0587L43.4383 36.1276C43.5614 36.1276 43.5517 36.2292 43.5387 36.298C43.5258 36.357 43.5258 36.4193 43.5387 36.4816H43.6521V36.1046C43.6521 36.0817 43.7752 36.1046 43.7979 35.9571C43.8205 35.8096 43.7979 35.7276 43.6165 35.6948L43.2763 35.5801L43.0723 36.3243H43.1727L43.1954 36.062L43.2018 36.0587ZM43.3249 35.7374L43.5387 35.8161C43.5387 35.8161 43.6618 35.8161 43.6165 35.9538C43.5711 36.0915 43.5258 36.0456 43.4577 36.0325L43.2439 35.9636L43.3217 35.7342L43.3249 35.7374Z" fill="white"/>
<path d="M44.1741 36.8458L44.2195 36.777L43.834 36.5376L43.9474 36.3213L44.3102 36.5245L44.3652 36.459L44.0057 36.2393L44.119 36.0459L44.5013 36.2754L44.5563 36.1836L44.0737 35.9082L43.7012 36.5606L44.1741 36.8458Z" fill="white"/>
<path d="M44.6472 37.3247C44.7865 37.4657 45.0132 37.4657 45.1557 37.3247C45.3047 37.2231 45.3468 37.0166 45.2464 36.8658C45.24 36.8559 45.2302 36.8428 45.2238 36.833L45.0326 36.6035L44.4561 37.0822L44.6472 37.3215V37.3247ZM45.1557 36.9018C45.2335 37.0035 45.2238 37.1084 45.1557 37.233C45.0877 37.3575 44.8966 37.3346 44.8156 37.233L44.7022 37.0953L45.0974 36.751L45.1525 36.8986L45.1557 36.9018Z" fill="white"/>
<path d="M45.1556 38.1603L45.2366 38.1242L45.0325 37.7144L45.2593 37.5997L45.4504 37.9767L45.5281 37.9308L45.337 37.5669L45.5508 37.4521L45.7419 37.8521L45.8326 37.816L45.5735 37.3145L44.8965 37.6587L45.1556 38.1603Z" fill="white"/>
<path d="M45.7868 38.6523L45.2686 38.7212V38.8228L46.0039 38.7081V38.6392C45.8905 38.6392 45.8808 38.6392 45.8451 38.4688H45.7674L45.7901 38.6523H45.7868Z" fill="white"/>
<path d="M45.8553 39.0967C45.7872 39.0836 45.7225 39.1262 45.7095 39.195C45.7095 39.195 45.7095 39.195 45.7095 39.1983C45.6836 39.1131 45.6058 39.0508 45.5184 39.0508C45.4536 39.0508 45.3953 39.0737 45.3499 39.1196C45.3111 39.1721 45.2916 39.2376 45.2949 39.3032C45.2754 39.4212 45.3564 39.5327 45.473 39.5524C45.486 39.5524 45.4989 39.5524 45.5087 39.5524C45.5896 39.5688 45.6706 39.5261 45.6998 39.4507C45.7192 39.513 45.7808 39.5556 45.8455 39.5524C45.9362 39.5524 46.0496 39.5524 46.0496 39.3229C46.0691 39.218 45.9978 39.1163 45.8941 39.0967C45.8812 39.0967 45.8682 39.0967 45.8585 39.0967H45.8553ZM45.5054 39.4507C45.3921 39.4507 45.3823 39.3589 45.3823 39.3032C45.3823 39.2475 45.4601 39.1786 45.5184 39.1786C45.5799 39.1786 45.635 39.2245 45.635 39.2868C45.635 39.2999 45.635 39.313 45.6285 39.3262C45.635 39.3884 45.5896 39.4442 45.5281 39.4507C45.5216 39.4507 45.5119 39.4507 45.5054 39.4507ZM45.8553 39.4507C45.7905 39.4409 45.7419 39.3819 45.7419 39.313C45.7419 39.2442 45.7419 39.2114 45.8553 39.2114C45.9686 39.2114 45.9557 39.2114 45.946 39.3262C45.9362 39.4409 45.8909 39.4507 45.8553 39.4507Z" fill="white"/>
<path d="M45.7412 39.7144V39.816C45.7412 39.816 45.9096 39.816 45.8772 39.9996C45.8448 40.1832 45.7638 40.1373 45.7185 40.1144C45.6731 40.0914 45.5954 40.0226 45.5727 39.9439V39.8292C45.5371 39.7111 45.4431 39.6193 45.3233 39.5898L45.2002 40.0816H45.2779L45.3784 39.6718C45.4334 39.7079 45.4691 39.7669 45.4788 39.8324V39.9242C45.4788 40.0488 45.5468 40.1537 45.6699 40.1767C45.793 40.2029 45.9128 40.1275 45.9388 40.0029C45.9388 40.0029 45.9388 39.9964 45.9388 39.9931C45.9517 39.8619 45.8642 39.7406 45.7347 39.7177L45.7412 39.7144Z" fill="white"/>
<path d="M45.5956 40.4224L45.5276 40.583L45.0547 40.3535V40.4453L45.7317 40.7666V40.6977C45.641 40.6191 45.654 40.5732 45.7317 40.4453L45.5956 40.4224Z" fill="white"/>
<path d="M41.5664 43.117H41.6441L42.1981 40.832H42.1203L41.5794 43.117H41.5696H41.5664Z" fill="white"/>
<path d="M41.4883 42.1243H41.566L42.0292 40.7539H41.9515L41.5012 42.0915L41.4915 42.1243H41.4883Z" fill="white"/>
<path d="M40.708 42.9686H40.776L41.9033 40.6836H41.8256L40.7631 42.9686H40.708Z" fill="white"/>
<path d="M40.5397 42.5912L41.667 40.6504H41.5989L40.4717 42.5813L40.5397 42.5912Z" fill="white"/>
<path d="M39.8174 42.6146H39.8854L41.5342 40.4902H41.4662L39.8174 42.6146Z" fill="white"/>
<path d="M39.9306 42.0896L41.3883 40.457L39.9209 42.1028L39.9306 42.0929V42.0896Z" fill="white"/>
<path d="M41.2617 40.3301L39.1044 42.2479V42.3167L41.2488 40.3989L41.2585 40.3301H41.2617Z" fill="white"/>
<path d="M41.139 40.1919V40.123L40.0117 40.9328V41.0016L41.139 40.1919Z" fill="white"/>
<path d="M41.0354 40.0455V39.9668L40.2354 40.4225V40.4913L41.0354 40.0455Z" fill="white"/>
<path d="M40.0859 40.1914V40.2701L40.9217 39.8931V39.8242L40.0859 40.1914Z" fill="white"/>
<path d="M39.9854 39.9297L40.021 40.0084L40.8664 39.7363L40.8891 39.7231L40.8664 39.6543L39.9854 39.9297Z" fill="white"/>
<path d="M40.8442 39.5631C40.8409 39.5368 40.8409 39.5106 40.8442 39.4844L39.9404 39.6778V39.7565L40.8442 39.5631Z" fill="white"/>
<path d="M39.8721 39.4056V39.4842L40.7985 39.3925C40.805 39.3629 40.805 39.3302 40.7985 39.3007L39.8721 39.4023V39.4056Z" fill="white"/>
<path d="M39.8721 38.9597L40.7855 39.0384V38.9597L39.8818 38.881L39.8721 38.9597Z" fill="white"/>
<path d="M39.9082 38.6607L40.8217 38.8672V38.7886L39.9082 38.582V38.6607Z" fill="white"/>
<path d="M39.9756 38.4113L40.8437 38.7096C40.8502 38.6834 40.8502 38.6571 40.8437 38.6309L39.9756 38.3457V38.4145V38.4113Z" fill="white"/>
<path d="M40.0859 38.0781V38.1568L40.9443 38.524V38.4551L40.1086 38.088L40.0859 38.0781Z" fill="white"/>
<path d="M40.1767 37.9067L40.9898 38.3624V38.2936L40.167 37.8379L40.1767 37.9067Z" fill="white"/>
<path d="M40.3252 37.7003L41.0702 38.2379V38.1822L40.3252 37.6445V37.7003Z" fill="white"/>
<path d="M40.5625 37.4062L41.2525 38.0127L40.5755 37.4194L40.5657 37.4095L40.5625 37.4062Z" fill="white"/>
<path d="M40.7533 37.2129H40.6982L41.3202 37.8751H41.3882L40.7663 37.2227L40.7565 37.2129H40.7533Z" fill="white"/>
<path d="M40.9574 37.0523H40.9023L41.466 37.7735L41.521 37.7178L40.9801 37.0195L40.9574 37.0523Z" fill="white"/>
<path d="M41.2165 36.8906H41.1484L41.5987 37.6676H41.6667L41.2262 36.9037L41.2165 36.8939V36.8906Z" fill="white"/>
<path d="M41.4527 36.7891H41.375L41.7572 37.5988H41.8253L41.4625 36.812L41.4527 36.7891Z" fill="white"/>
<path d="M41.7701 36.6973H41.6924L41.9872 37.5431H42.0649L41.7701 36.7202V36.6973Z" fill="white"/>
<path d="M41.984 36.6152H41.9062L42.0876 37.5069H42.1784L41.9969 36.6283L41.9872 36.6185L41.984 36.6152Z" fill="white"/>
<path d="M42.2792 37.4982H42.3569L42.2662 36.5605H42.1885L42.2792 37.4982Z" fill="white"/>
<path d="M42.5158 36.5605H42.4375V37.4621H42.5158V36.5605Z" fill="white"/>
<path d="M42.6064 37.485H42.6842L42.7749 36.5703H42.6971L42.6064 37.485Z" fill="white"/>
<path d="M42.8971 37.5304L43.0785 36.6289H43.0007L42.8193 37.5304H42.8971Z" fill="white"/>
<path d="M43.3057 36.7206H43.228L42.9462 37.5664H43.0239L43.3057 36.7337V36.7239V36.7206Z" fill="white"/>
<path d="M43.5519 36.8217H43.4741L43.1113 37.6315H43.1794L43.5422 36.8086L43.5519 36.8184V36.8217Z" fill="white"/>
<path d="M43.7013 36.8906L43.2705 37.6676L43.2607 37.6774L43.3385 37.7233L43.7693 36.9365L43.7013 36.8906Z" fill="white"/>
<path d="M43.4062 37.7603H43.4743L44.0152 37.0391H43.9472L43.4062 37.7603Z" fill="white"/>
<path d="M43.542 37.8849L43.5971 37.944L44.1963 37.2785L44.219 37.2686L44.151 37.2129L43.542 37.8849Z" fill="white"/>
<path d="M44.3313 37.4053L43.6582 38.0156L43.7101 38.0742L44.3832 37.4639L44.3313 37.4053Z" fill="white"/>
<path d="M43.8018 38.147V38.2028L44.5144 37.6782V37.6094L43.8018 38.147Z" fill="white"/>
<path d="M43.8916 38.274C43.8948 38.3002 43.8948 38.3264 43.8916 38.3527L44.669 37.9068V37.8281L43.8916 38.274Z" fill="white"/>
<path d="M44.0283 38.4452V38.5239L44.8414 38.1567V38.0879L44.0283 38.442V38.4452Z" fill="white"/>
<path d="M44.0283 38.6153C44.0283 38.6415 44.0283 38.6677 44.0283 38.694L44.8641 38.4088V38.3301L44.0283 38.6153Z" fill="white"/>
<path d="M44.0278 38.7768C44.0246 38.8031 44.0246 38.8293 44.0278 38.8555L44.9089 38.649V38.5703L44.0278 38.7768Z" fill="white"/>
<path d="M44.0957 38.9473C44.1022 38.9736 44.1022 38.9998 44.0957 39.026L44.9638 38.9473V38.8457L44.0957 38.9473Z" fill="white"/>
<path d="M44.1191 39.1666H45.0099V39.0879H44.1191V39.1666Z" fill="white"/>
<path d="M44.0957 39.4609C44.0957 39.4872 44.0957 39.5134 44.0957 39.5396L44.9541 39.7462V39.6675L44.0957 39.4609Z" fill="white"/>
<path d="M44.9865 39.4752V39.3965L44.0957 39.2949C44.1022 39.3146 44.1022 39.3343 44.0957 39.3507L44.9638 39.4523L44.9865 39.4752Z" fill="white"/>
<path d="M44.864 39.9855V39.9068L44.0283 39.6445C44.0218 39.6675 44.0218 39.6904 44.0283 39.7134L44.8413 39.9888H44.864V39.9855Z" fill="white"/>
<path d="M44.0283 39.8047V39.8834L44.8187 40.2374V40.1587L44.0283 39.8047Z" fill="white"/>
<path d="M43.8789 39.9863L44.6239 40.4322V40.3535L43.9113 39.9863H43.8789Z" fill="white"/>
<path d="M43.7783 40.169L44.9056 40.9919V40.923L43.7783 40.1133C43.7783 40.1133 43.801 40.1461 43.7783 40.169Z" fill="white"/>
<path d="M43.7232 40.252V40.3208L45.7219 42.2747V42.219L43.6455 40.311L43.7232 40.2552V40.252Z" fill="white"/>
<path d="M43.5422 40.4317L44.9416 42.0643H45.0096L43.6103 40.4317H43.5422Z" fill="white"/>
<path d="M43.4189 40.5361L44.9997 42.6605L45.0677 42.6048L43.4773 40.4902L43.4222 40.5361H43.4189Z" fill="white"/>
<path d="M43.2471 40.6387L44.3743 42.5467H44.4424L43.3151 40.6289L43.2471 40.6387Z" fill="white"/>
<path d="M43.1017 40.7169L44.1188 43.0019H44.1966L43.1697 40.7169H43.1017Z" fill="white"/>
<path d="M42.8975 40.7769L43.325 42.1144H43.4028L42.9525 40.7539L42.8975 40.7769Z" fill="white"/>
<path d="M42.7617 40.8223L43.293 43.1073H43.3707L42.8395 40.8223H42.7617Z" fill="white"/>
<path d="M34.8249 55.9805C34.8249 55.9805 34.5657 56.2886 34.7115 56.5411C34.854 56.7181 35.1099 56.7443 35.2816 56.6034C35.3043 56.5837 35.3237 56.564 35.3431 56.5411C35.3431 56.5411 34.7212 56.564 34.8249 55.9805Z" fill="white"/>
<path d="M49.6709 56.5545C49.8134 56.7316 50.0693 56.7578 50.241 56.6168C50.2637 56.5972 50.2831 56.5775 50.3026 56.5545C50.4483 56.3021 50.1892 55.994 50.1892 55.994C50.2345 56.5644 49.6709 56.5545 49.6709 56.5545Z" fill="white"/>
<path d="M37.1409 55.6861L37.0049 55.6074L36.6777 56.168L36.8138 56.2467C36.9434 56.3451 37.128 56.3155 37.2252 56.1844C37.2381 56.168 37.2478 56.1516 37.2543 56.132C37.3515 56.0008 37.3223 55.814 37.1928 55.7156C37.1766 55.7025 37.1604 55.6927 37.1409 55.6861Z" fill="white"/>
<path d="M38.2235 56.2559C38.068 56.1772 37.8769 56.2428 37.7992 56.4034C37.7992 56.4067 37.7959 56.4133 37.7927 56.4166C37.7117 56.5805 37.7765 56.7804 37.9384 56.8624C38.1036 56.9411 38.3012 56.869 38.379 56.7018C38.4567 56.5346 38.3855 56.3346 38.2203 56.2559H38.2235Z" fill="white"/>
<path d="M41.9843 57.2392C41.8094 57.2261 41.6604 57.3605 41.6475 57.5342C41.6475 57.5375 41.6475 57.544 41.6475 57.5473C41.6475 57.7244 41.79 57.8686 41.9649 57.8686C42.1398 57.8686 42.2824 57.7244 42.2824 57.5473C42.2759 57.3834 42.1495 57.249 41.9876 57.2392H41.9843Z" fill="white"/>
<path d="M45.032 57.2851H44.8506L44.9186 57.5703H45.1097C45.1842 57.5572 45.2328 57.4851 45.2166 57.4097C45.2166 57.4031 45.2134 57.3933 45.2101 57.3867C45.1972 57.3113 45.1259 57.2622 45.0514 57.2785C45.0449 57.2785 45.0352 57.2818 45.0287 57.2851H45.032Z" fill="white"/>
<path d="M45.0869 57.023C45.0643 56.9575 44.9962 56.9149 44.9282 56.9313H44.7598L44.8278 57.1837H44.9962C45.0578 57.1771 45.1031 57.1214 45.0967 57.0558C45.0967 57.0427 45.0934 57.0329 45.0869 57.023Z" fill="white"/>
<path d="M46.2856 56.5089H46.0361L46.1495 56.8072L46.3082 56.7384C46.386 56.7154 46.4313 56.6302 46.4054 56.5548C46.4054 56.5482 46.4022 56.5417 46.3989 56.5351C46.3665 56.5089 46.3244 56.5023 46.2856 56.5122V56.5089Z" fill="white"/>
<path d="M47.4131 56.0958V56.3811L47.6496 56.2565L47.4131 56.0631V55.9844C47.4163 56.0237 47.4163 56.0598 47.4131 56.0991V56.0958Z" fill="white"/>
<path d="M49.8295 56.1554L49.5574 56.0538C49.7452 55.9817 49.9461 55.962 50.1437 55.9981L49.8165 55.6997C49.1395 55.0834 48.1548 54.9555 47.3449 55.3784C44.3648 57.2504 40.5943 57.2504 37.6142 55.3784C36.8076 54.9523 35.8261 55.0801 35.1524 55.6997L34.8252 55.9981C35.0228 55.9653 35.2236 55.9849 35.4115 56.0538L35.1394 56.1554C35.4892 56.2931 35.3435 56.5554 35.3435 56.5554L35.7613 56.1784C36.3995 56.4505 37.0149 56.7619 37.6142 57.116C39.0978 57.9618 40.7757 58.3912 42.4796 58.3617C44.1802 58.3978 45.8614 57.9716 47.3449 57.1291C47.941 56.775 48.5597 56.4636 49.1978 56.1915L49.6254 56.5685C49.6254 56.5685 49.4796 56.2931 49.8295 56.1587V56.1554ZM36.7688 56.339L36.5193 56.2013L36.9599 55.4473L37.2093 55.5948C37.4198 55.703 37.5041 55.9653 37.3972 56.1784C37.2903 56.3915 37.0311 56.4767 36.8206 56.3685C36.8011 56.3587 36.7849 56.3488 36.7688 56.3357V56.339ZM37.3777 56.6931H37.2644L37.6693 55.9292L37.7826 55.9849L37.3777 56.6931ZM37.896 56.9684C37.6757 56.8635 37.5786 56.598 37.6822 56.3751C37.7859 56.1521 38.0483 56.0538 38.2685 56.1587C38.4888 56.2603 38.586 56.5259 38.4856 56.7488C38.3916 56.9684 38.139 57.0701 37.9219 56.9783C37.9155 56.975 37.9057 56.9717 37.8993 56.9684H37.896ZM39.0913 56.7062C39.0589 56.6472 39.0071 56.598 38.9455 56.5685C38.8808 56.5324 38.7965 56.5554 38.7609 56.6209C38.7609 56.6275 38.7544 56.6308 38.7544 56.6373C38.6864 56.798 39.0945 56.9127 38.9909 57.175C38.9293 57.3028 38.7803 57.3586 38.6508 57.2995C38.5406 57.2799 38.4435 57.2209 38.3787 57.1291L38.4694 57.0733C38.5082 57.152 38.5698 57.211 38.6508 57.2438C38.7188 57.2766 38.7998 57.2438 38.8322 57.1783C38.9002 57.0078 38.492 56.893 38.5957 56.6406C38.6508 56.5128 38.7965 56.4537 38.9229 56.5095C38.9261 56.5095 38.9326 56.5127 38.9358 56.516C39.02 56.5455 39.0881 56.6078 39.1269 56.6865L39.0945 56.7094L39.0913 56.7062ZM39.8039 57.6766C39.6323 57.6438 39.5189 57.4799 39.548 57.3061C39.548 57.2963 39.5513 57.2864 39.5545 57.2766L39.7003 56.739H39.8137L39.6679 57.2766C39.6582 57.4012 39.7521 57.5126 39.8784 57.5192C39.9724 57.5258 40.0566 57.4733 40.0987 57.3913L40.2348 56.8537H40.3579L40.2121 57.4012C40.2024 57.5717 40.0598 57.7028 39.8914 57.6929C39.8622 57.6929 39.8331 57.6864 39.8072 57.6766H39.8039ZM41.0219 57.929H40.9085L40.6364 57.2766C40.6332 57.2274 40.6332 57.1782 40.6364 57.1291C40.6397 57.1717 40.6397 57.2143 40.6364 57.2537L40.536 57.8142H40.4226L40.5684 56.9586H40.6915L40.9636 57.588L41.0187 57.7257C41.0154 57.6831 41.0154 57.6405 41.0187 57.6012L41.1191 57.0406H41.2325L41.0187 57.9323L41.0219 57.929ZM41.3491 57.929H41.226L41.3264 57.0602H41.4495L41.3491 57.929ZM41.9354 57.9847C41.6989 57.9782 41.511 57.7815 41.5175 57.5421C41.5175 57.5356 41.5175 57.5258 41.5175 57.5192C41.5305 57.2733 41.7378 57.0832 41.9807 57.0963C42.2172 57.1029 42.4051 57.2995 42.3986 57.5389C42.3986 57.5454 42.3986 57.5553 42.3986 57.5618C42.4115 57.8011 42.2302 58.0077 41.9937 58.0208C41.9742 58.0208 41.9548 58.0208 41.9354 58.0208V57.988V57.9847ZM43.0626 57.9847L42.6577 57.4372L42.5897 57.3127C42.5897 57.3553 42.5897 57.3979 42.5897 57.4372V58.0077H42.4666V57.1389H42.5897L42.9849 57.6864L43.0626 57.8011C43.0626 57.7618 43.0626 57.7257 43.0626 57.6864V57.116H43.1857V57.9847H43.0626ZM43.8627 57.906L43.772 57.1291H43.8951L44.0085 57.8831L44.3907 57.8274V57.929L43.8595 57.906H43.8627ZM44.462 57.8044L44.2936 56.9488H44.4069L44.5883 57.7946L44.4652 57.8044H44.462ZM45.0839 57.6569L44.7892 57.7356L44.5624 56.8898L44.8572 56.8111C44.9738 56.7685 45.1034 56.8307 45.1455 56.952C45.1455 56.9586 45.1487 56.9652 45.152 56.9717C45.1908 57.034 45.1908 57.116 45.152 57.1783C45.2491 57.1783 45.3334 57.2504 45.3431 57.3487C45.3755 57.5192 45.2751 57.6339 45.152 57.6798L45.0839 57.6569ZM45.5115 57.5323L45.2394 56.7094L45.7124 56.5488V56.6504L45.3496 56.7652L45.4403 57.0274L45.735 56.9258V57.0274L45.4532 57.1291L45.531 57.3913L45.9132 57.2668V57.3684L45.5083 57.529L45.5115 57.5323ZM46.6388 57.1324L46.344 56.8799L46.1756 56.9488L46.2987 57.27H46.1853L45.8678 56.4701L46.1043 56.3685H46.263C46.3667 56.3718 46.4574 56.4406 46.4898 56.539C46.5416 56.6242 46.5416 56.7291 46.4898 56.8144L46.7846 57.0668L46.6388 57.1356V57.1324ZM47.0567 56.9389L46.7392 56.2538L46.4671 56.3783V56.2865L47.0664 55.9882V56.08L46.7943 56.2046L47.1214 56.9029L47.0534 56.9357L47.0567 56.9389ZM47.9151 56.4931L47.7239 56.3095L47.4421 56.4701V56.7324H47.3288L47.1927 55.8177L47.3061 55.762L47.9831 56.3783L47.9151 56.4931ZM48.3556 56.2308L48.1191 56.3783L47.6689 55.6473L47.9053 55.4866C48.0867 55.3522 48.3394 55.3916 48.4722 55.5751C48.4819 55.5915 48.4949 55.6079 48.5014 55.6243C48.6439 55.7915 48.6245 56.0439 48.4593 56.1882C48.4269 56.2144 48.3945 56.2374 48.3556 56.2538V56.2308Z" fill="white"/>
<path d="M47.9544 55.6033L47.8184 55.682L48.1682 56.2426L48.3042 56.1508C48.4468 56.0721 48.4986 55.8918 48.4241 55.7476C48.4176 55.7312 48.4079 55.7181 48.3949 55.705C48.3237 55.5574 48.1455 55.4984 47.9998 55.5738C47.9836 55.5837 47.9674 55.5935 47.9544 55.6033Z" fill="white"/>
<path d="M99.5682 0H98.4053V121H99.5682V0Z" fill="white"/>
<path d="M115.949 51.5263C116.237 53.1852 117.672 54.385 119.334 54.3588C120.704 54.4932 121.926 53.4769 122.058 52.0902C122.058 52.0574 122.065 52.0246 122.065 51.9951C122.065 49.1037 115.696 48.2119 115.696 44.7074C115.696 43.0387 117.209 41.793 119.23 41.793C120.889 41.793 121.229 42.2946 121.929 42.2946C122.075 42.3077 122.211 42.229 122.279 42.1011H122.596L122.936 44.6484H122.596C122.123 43.2518 120.837 42.3011 119.379 42.2716C118.071 42.2716 117.122 43.0256 117.122 44.1566C117.122 47.0022 123.49 47.7661 123.49 51.4575C123.49 53.4212 121.764 54.8834 119.438 54.8834C118.505 54.785 117.585 54.6047 116.684 54.3457C116.526 54.3457 116.377 54.4309 116.289 54.5621H115.949L115.531 51.5132L115.949 51.5231V51.5263Z" fill="white"/>
<path d="M133.604 50.0627H133.208C133.05 48.6333 132.677 48.476 131.864 48.476H128.479V52.7476C128.479 53.6721 128.819 53.8885 129.606 53.8885H132.654C134.044 53.8885 134.462 53.3509 134.912 51.6035H135.275L134.948 54.5966H124.427V54.2196H124.981C126.571 54.2196 126.843 53.7738 126.843 52.5739V44.0863C126.843 42.9454 126.584 42.4766 125.262 42.4766H124.822V42.0996H134.339L134.498 44.8862H134.135C133.885 43.1847 133.39 42.8176 132.667 42.8176H128.492V47.7547H132.081C132.794 47.7547 133.131 47.4105 133.208 46.2467H133.581L133.604 50.0627Z" fill="white"/>
<path d="M149.012 45.3921C148.342 43.4644 146.515 42.2023 144.497 42.2744C141.189 42.2744 139.123 44.7069 139.123 48.077C138.935 51.3587 141.41 54.1747 144.652 54.3649C144.691 54.3649 144.73 54.3682 144.769 54.3714C146.819 54.4239 148.708 53.2634 149.612 51.4013H149.984C149.676 52.4241 149.252 53.4109 148.721 54.3387C147.457 54.1551 146.576 54.8763 144.205 54.8763C140.176 54.8763 137.286 52.1913 137.286 48.477C137.286 44.5823 140.257 41.7695 144.409 41.7695C145.831 41.8417 147.237 42.1138 148.585 42.5793C148.717 42.5957 148.85 42.5498 148.947 42.4547H149.242L149.424 45.3691L149.019 45.3921H149.012Z" fill="white"/>
<path d="M154.578 52.6932C154.578 53.893 155.064 54.2012 156.168 54.2012H156.618V54.5782H150.976V54.2012H151.316C152.443 54.2012 152.906 53.8799 152.906 52.5325V44.0908C152.906 42.845 152.566 42.4811 151.416 42.4811H150.976V42.1041C151.449 42.1041 152.67 42.0255 153.483 41.9796C154.296 41.9337 154.691 41.9238 155.977 41.9238C159.647 41.9238 161.293 43.445 161.293 45.5005C161.247 47.0643 160.162 48.4018 158.653 48.746C159.45 49.3919 160.204 50.0902 160.91 50.8376L162.559 52.4145C163.56 53.5685 164.956 54.2963 166.466 54.4471V54.847C163 55.0175 162.109 54.2536 160.337 52.4604L159.028 51.1458C158.39 50.4606 157.681 49.8443 156.916 49.3066H154.558L154.581 52.6997L154.578 52.6932ZM154.578 48.9231C154.986 48.9526 155.397 48.9526 155.809 48.9231C158.011 48.9231 159.466 47.9855 159.466 45.5759C159.466 43.7138 158.63 42.2615 155.572 42.2615C155.242 42.2386 154.908 42.2386 154.578 42.2615V48.9231Z" fill="white"/>
<path d="M175.733 50.0627H175.36C175.202 48.6333 174.829 48.476 174.016 48.476H170.631V52.7476C170.631 53.6721 170.971 53.8885 171.703 53.8885H174.751C176.141 53.8885 176.559 53.3509 177.009 51.6035H177.359L177.042 54.5966H166.521V54.2196H167.074C168.655 54.2196 168.937 53.7738 168.937 52.5739V44.0863C168.937 42.9454 168.678 42.4766 167.347 42.4766H166.919V42.0996H176.436L176.595 44.8862H176.232C175.973 43.1847 175.487 42.8176 174.764 42.8176H170.589V47.7547H174.133C174.845 47.7547 175.182 47.4105 175.26 46.2467H175.633L175.733 50.0627Z" fill="white"/>
<path d="M185.849 52.7389C185.849 53.8142 186.212 54.201 187.417 54.201H188.152V54.578H181.897V54.201H182.633C183.851 54.201 184.2 53.8142 184.2 52.7389V42.8219H180.815C180.015 42.8219 179.688 43.2776 179.358 45.1069H179.008L179.325 41.8516H179.698C179.717 41.9696 179.808 42.0647 179.925 42.0909C180.051 42.1368 180.184 42.1597 180.32 42.1597H189.846C190.128 42.1597 190.423 42.0909 190.468 41.8516H190.786L191.103 45.1069H190.786C190.481 43.3366 190.131 42.8219 189.341 42.8219H185.888L185.856 52.7389H185.849Z" fill="white"/>
<path d="M194.528 49.0374L193.401 52.1911C193.222 52.5977 193.09 53.0238 193.005 53.4599C193.005 53.9975 193.524 54.204 194.609 54.204H194.926V54.5811H190.333V54.204C191.619 54.204 191.836 53.9647 192.468 52.2174L196.079 42.2447L195.898 41.7988H197.625L201.768 52.9386C201.923 53.791 202.73 54.3581 203.575 54.2073V54.5843H198.123V54.2073H198.687C199.814 54.2073 200.232 54.0827 200.232 53.5221C200.21 53.2369 200.132 52.9583 200.005 52.6993L198.684 49.0439H194.531L194.528 49.0374ZM196.549 43.4839L194.868 48.1555H198.253L196.549 43.4839Z" fill="white"/>
<path d="M207.614 52.6932C207.614 53.893 208.087 54.2012 209.204 54.2012H209.655V54.5782H204.012V54.2012H204.352C205.479 54.2012 205.933 53.8799 205.933 52.5325V44.0908C205.933 42.845 205.605 42.4811 204.452 42.4811H204.012V42.1041C204.485 42.1041 205.693 42.0255 206.506 41.9796C207.319 41.9337 207.714 41.9238 209.013 41.9238C212.683 41.9238 214.319 43.445 214.319 45.5005C214.277 47.061 213.195 48.3953 211.689 48.746C212.486 49.3919 213.24 50.0934 213.947 50.8376L215.514 52.4145C216.512 53.575 217.908 54.3028 219.421 54.4471V54.847C215.945 55.0175 215.051 54.2536 213.292 52.4604L211.984 51.1458C211.375 50.4672 210.701 49.8541 209.975 49.3066H207.617V52.6997L207.614 52.6932ZM207.614 48.9231C208.022 48.9526 208.433 48.9526 208.845 48.9231C211.047 48.9231 212.492 47.9855 212.492 45.5759C212.492 43.7138 211.656 42.2615 208.608 42.2615C208.278 42.2386 207.944 42.2386 207.614 42.2615V48.9231Z" fill="white"/>
<path d="M225.281 54.577H220.461V54.2C221.692 54.2 221.951 53.8131 221.951 52.4756V43.929C221.951 42.7881 221.578 42.5357 220.461 42.4767V42.0996H225.281V42.4767C224.027 42.4767 223.6 42.7619 223.6 44.0994V52.61C223.6 53.7508 223.917 54.1967 225.281 54.1967V54.5737V54.577ZM220.957 40.5129L222.787 37.9657C223.062 37.5001 223.522 37.1789 224.05 37.0871C224.361 37.0674 224.63 37.3067 224.649 37.6214C224.649 37.6477 224.649 37.6772 224.649 37.7034C224.649 38.0804 224.254 38.4804 223.305 39.1196L221.261 40.5129H220.957Z" fill="white"/>
<path d="M230.451 49.0378L229.324 52.1916C229.145 52.5981 229.013 53.0243 228.928 53.4603C228.928 53.9979 229.447 54.2045 230.542 54.2045H230.859V54.5815H226.275V54.2045C227.561 54.2045 227.778 53.9651 228.42 52.2178L231.999 42.2779L231.818 41.832H233.544L237.687 52.9718C237.843 53.8242 238.649 54.3913 239.495 54.2405V54.6175H234.043V54.2405H234.561C235.689 54.2405 236.107 54.1159 236.107 53.5554C236.087 53.2701 236.013 52.9915 235.893 52.7325L234.561 49.0771L230.451 49.0444V49.0378ZM232.472 43.4843L230.791 48.1559H234.176L232.472 43.4843Z" fill="white"/>
<path d="M247.305 44.1001C247.305 42.7986 246.965 42.4774 245.802 42.4774H245.397V42.1004C246.132 42.1004 247.101 42.0217 248.196 41.9758C249.291 41.9299 250.453 41.92 251.526 41.92C256.763 41.92 259.076 44.605 259.076 47.9194C259.076 50.9486 256.763 54.581 251.739 54.581H245.394V54.204H245.734C246.806 54.204 247.302 53.8958 247.302 52.7418V44.1034L247.305 44.1001ZM248.954 53.0926C248.954 53.9155 249.009 54.2335 250.58 54.2335C253.233 54.2335 254.337 53.8466 255.568 52.6107C256.65 51.4338 257.243 49.8766 257.217 48.2702C257.272 46.6802 256.705 45.1328 255.636 43.9624C254.723 43.038 253.31 42.3298 250.534 42.3298C249.721 42.3298 249.19 42.3987 248.954 42.4085V53.0893V53.0926Z" fill="white"/>
<path d="M269.373 50.0627H268.991C268.832 48.6333 268.46 48.476 267.647 48.476H264.262V52.7476C264.262 53.6721 264.602 53.8885 265.334 53.8885H268.382C269.772 53.8885 270.19 53.3509 270.64 51.6035H271.003L270.685 54.5966H260.154V54.2196H260.776C262.367 54.2196 262.639 53.7738 262.639 52.5739V44.0863C262.639 42.9454 262.38 42.4766 261.058 42.4766H260.618V42.0996H270.134L270.293 44.8862H269.943C269.684 43.1847 269.189 42.8176 268.476 42.8176H264.288V47.7547H267.831C268.554 47.7547 268.894 47.4105 268.959 46.2467H269.341L269.373 50.0627Z" fill="white"/>
<path d="M120.407 78.6597H115.587V78.2728C116.818 78.2171 117.077 77.8958 117.077 76.5484V68.0018C117.077 66.861 116.695 66.6184 115.587 66.5626V66.1758H120.407V66.5626C119.153 66.5626 118.726 66.838 118.726 68.1854V76.6861C118.726 77.827 119.043 78.2728 120.407 78.2728V78.6597Z" fill="white"/>
<path d="M134.753 78.8315L124.491 67.954V76.5465C124.491 77.9988 124.808 78.2939 126.49 78.2939V78.6807H121.919V78.2939H121.997C123.215 78.2939 123.623 77.871 123.623 76.9563V67.0525C123.13 66.7181 122.547 66.5443 121.951 66.5607V66.1739H125.068L134.335 76.022V68.0262C134.335 66.8033 133.972 66.587 132.395 66.5509V66.1641H137.033V66.5509C135.543 66.5509 135.226 66.8033 135.226 67.5901V78.8315H134.753Z" fill="white"/>
<path d="M150.875 78.8315L140.604 67.954V76.5465C140.604 77.9988 140.921 78.2939 142.612 78.2939V78.6807H138.006V78.2939H138.084C139.315 78.2939 139.71 77.871 139.71 76.9563V67.0525C139.221 66.7181 138.641 66.5476 138.051 66.5607V66.1739H141.167L150.503 76.022V68.0262C150.503 66.8033 150.14 66.587 148.563 66.5509V66.1641H153.201V66.5509C151.711 66.5509 151.394 66.8033 151.394 67.5901V78.8315H150.875Z" fill="white"/>
<path d="M161.737 78.9814C157.853 78.9814 154.581 76.4439 154.581 72.6968C154.581 68.6972 157.616 65.8418 161.84 65.8418C165.588 65.8418 168.805 68.4251 168.805 72.0444C168.821 75.8604 165.773 78.9682 162.002 78.9846C161.915 78.9846 161.827 78.9846 161.74 78.9814H161.737ZM161.332 66.4155C157.833 66.4155 156.453 69.707 156.453 72.1264C156.453 75.8735 158.97 78.5257 162.096 78.5257C165.222 78.5257 166.884 75.6342 166.884 72.8148C166.939 69.0119 164.594 66.3827 161.328 66.3827V66.4155H161.332Z" fill="white"/>
<path d="M175.18 78.981L170.878 68.1264C170.382 66.8577 170.143 66.5626 168.938 66.5626V66.1758H174.389V66.5626C172.559 66.5626 172.131 67.0183 172.504 67.9461L176.106 76.9385L179.245 68.6444C179.423 68.251 179.54 67.8313 179.585 67.3986C179.585 66.8052 179.089 66.5659 177.732 66.5659V66.1791H182.338V66.5659C181.299 66.5659 180.771 67.0445 180.294 68.2903L176.206 78.9842H175.18V78.981Z" fill="white"/>
<path d="M184.797 73.1194L183.669 76.2732C183.491 76.6764 183.358 77.096 183.274 77.5288C183.274 78.0763 183.792 78.273 184.877 78.273H185.137V78.6598H180.621V78.273C181.907 78.273 182.124 78.0336 182.756 76.2863L186.368 66.3136L186.186 65.8809H187.913L192.056 77.0206C192.214 77.8697 193.021 78.4303 193.863 78.2762V78.6631H188.412V78.2762H188.92C190.047 78.2762 190.465 78.1615 190.465 77.5911C190.446 77.3058 190.371 77.0272 190.251 76.7682L188.897 73.1227H184.8L184.797 73.1194ZM186.818 67.5561L185.137 72.2408H188.522L186.818 67.5561Z" fill="white"/>
<path d="M205.93 69.4654C205.246 67.5541 203.423 66.3084 201.414 66.3805C198.094 66.3805 196.04 68.8032 196.04 72.1733C195.849 75.4615 198.331 78.2841 201.58 78.4743C201.615 78.4743 201.651 78.4775 201.683 78.4808C203.727 78.5267 205.612 77.3695 206.516 75.5107H206.898C206.591 76.5335 206.163 77.517 205.622 78.4349C204.359 78.2513 203.487 78.9824 201.107 78.9824C197.077 78.9824 194.188 76.2876 194.188 72.5733C194.188 68.8589 197.158 65.8789 201.301 65.8789C202.726 65.951 204.135 66.2199 205.489 66.6788C205.703 66.6788 205.807 66.6788 205.839 66.5641H206.144L206.312 69.4654H205.93Z" fill="white"/>
<path d="M213.357 78.6597H208.547V78.2728C209.765 78.2171 210.027 77.8958 210.027 76.5484V68.0018C210.027 66.861 209.655 66.6184 208.547 66.5626V66.1758H213.357V66.5626C212.117 66.5626 211.676 66.838 211.676 68.1854V76.6861C211.676 77.827 211.993 78.2728 213.357 78.2728V78.6597Z" fill="white"/>
<path d="M222.388 78.9822C218.504 78.9822 215.232 76.4448 215.232 72.6977C215.232 68.6981 218.268 65.8427 222.492 65.8427C226.239 65.8427 229.456 68.426 229.456 72.0453C229.472 75.8613 226.424 78.9691 222.654 78.9855C222.566 78.9855 222.479 78.9855 222.391 78.9822H222.388ZM221.97 66.4164C218.481 66.4164 217.092 69.7078 217.092 72.1272C217.092 75.8744 219.609 78.5265 222.803 78.5265C225.996 78.5265 227.59 75.6351 227.59 72.8157C227.6 69.0128 225.255 66.3836 221.98 66.3836L221.97 66.4164ZM220.425 64.6231L222.255 62.0759C222.53 61.6104 222.99 61.2891 223.518 61.1973C223.836 61.1711 224.111 61.4104 224.137 61.7316C224.137 61.748 224.137 61.7644 224.137 61.7775C224.137 62.1546 223.742 62.5643 222.783 63.2069L220.684 64.6231H220.425Z" fill="white"/>
<path d="M243.975 78.8315L233.681 67.9212V76.5465C233.681 77.9988 233.998 78.2939 235.689 78.2939V78.6807H231.083V78.2939H231.161C232.392 78.2939 232.787 77.871 232.787 76.9563V67.0525C232.298 66.7181 231.718 66.5476 231.128 66.5607V66.1739H234.245L243.58 76.022V68.0262C243.58 66.8033 243.217 66.587 241.64 66.5509V66.1641H246.278V66.5509C244.788 66.5509 244.471 66.8033 244.471 67.5901V78.8315H243.975Z" fill="white"/>
</svg>
